<?xml version="1.0" encoding="UTF-8" standalone="no"?>
<svg
   xmlns:dc="http://purl.org/dc/elements/1.1/"
   xmlns:cc="http://creativecommons.org/ns#"
   xmlns:rdf="http://www.w3.org/1999/02/22-rdf-syntax-ns#"
   xmlns:svg="http://www.w3.org/2000/svg"
   xmlns="http://www.w3.org/2000/svg"
   viewBox="0 0 796.44531 348.49692"
   height="348.49692"
   width="796.44531"
   xml:space="preserve"
   id="svg2"
   version="1.1"><metadata
     id="metadata8"><rdf:RDF><cc:Work
         rdf:about=""><dc:format>image/svg+xml</dc:format><dc:type
           rdf:resource="http://purl.org/dc/dcmitype/StillImage" /></cc:Work></rdf:RDF></metadata><defs
     id="defs6"><clipPath
       id="clipPath14"
       clipPathUnits="userSpaceOnUse"><path
         id="path12"
         d="M 0,0 H 960 V 540 H 0 Z" /></clipPath><clipPath
       id="clipPath22"
       clipPathUnits="userSpaceOnUse"><path
         style="clip-rule:evenodd"
         id="path20"
         d="M 0,1.2207e-4 H 960 V 540.00012 H 0 Z" /></clipPath><linearGradient
       id="linearGradient78"
       spreadMethod="pad"
       gradientUnits="userSpaceOnUse"
       y2="278.84"
       x2="651.92999"
       y1="217.32001"
       x1="725.25"><stop
         id="stop56"
         offset="0"
         style="stop-opacity:1;stop-color:#fad8c1" /><stop
         id="stop58"
         offset="0.02"
         style="stop-opacity:1;stop-color:#fad8c1" /><stop
         id="stop60"
         offset="0.075"
         style="stop-opacity:1;stop-color:#f7c4a2" /><stop
         id="stop62"
         offset="0.24"
         style="stop-opacity:1;stop-color:#f19c99" /><stop
         id="stop64"
         offset="0.4"
         style="stop-opacity:1;stop-color:#cc0066" /><stop
         id="stop66"
         offset="0.5"
         style="stop-opacity:1;stop-color:#cc0066" /><stop
         id="stop68"
         offset="0.6"
         style="stop-opacity:1;stop-color:#cc0066" /><stop
         id="stop70"
         offset="0.76"
         style="stop-opacity:1;stop-color:#f19c99" /><stop
         id="stop72"
         offset="0.925"
         style="stop-opacity:1;stop-color:#f7c4a2" /><stop
         id="stop74"
         offset="0.98"
         style="stop-opacity:1;stop-color:#fad8c1" /><stop
         id="stop76"
         offset="1"
         style="stop-opacity:1;stop-color:#fad8c1" /></linearGradient><clipPath
       id="clipPath130"
       clipPathUnits="userSpaceOnUse"><path
         style="clip-rule:evenodd"
         id="path128"
         d="M -3.0518e-5,540 H 960 V 1.8311e-4 H 0" /></clipPath><clipPath
       id="clipPath140"
       clipPathUnits="userSpaceOnUse"><path
         style="clip-rule:evenodd"
         id="path138"
         d="M 1.4305e-5,0 H 960.00001 V 540 H 1.4305e-5 Z" /></clipPath><clipPath
       id="clipPath152"
       clipPathUnits="userSpaceOnUse"><path
         style="clip-rule:evenodd"
         id="path150"
         d="M 1.4305e-5,0 H 960.00001 V 540 H 1.4305e-5 Z" /></clipPath><clipPath
       id="clipPath164"
       clipPathUnits="userSpaceOnUse"><path
         style="clip-rule:evenodd"
         id="path162"
         d="M 1.4305e-5,0 H 960.00001 V 540 H 1.4305e-5 Z" /></clipPath><clipPath
       id="clipPath176"
       clipPathUnits="userSpaceOnUse"><path
         style="clip-rule:evenodd"
         id="path174"
         d="M 1.4305e-5,0 H 960.00001 V 540 H 1.4305e-5 Z" /></clipPath><clipPath
       id="clipPath208"
       clipPathUnits="userSpaceOnUse"><path
         style="clip-rule:evenodd"
         id="path206"
         d="M 0,540 H 960 V 2.4414e-4 L -3.0518e-5,1.8311e-4" /></clipPath><clipPath
       id="clipPath218"
       clipPathUnits="userSpaceOnUse"><path
         style="clip-rule:evenodd"
         id="path216"
         d="M -3.0518e-5,540 H 960 V 3.0518e-4 L 0,1.8311e-4" /></clipPath><clipPath
       id="clipPath228"
       clipPathUnits="userSpaceOnUse"><path
         style="clip-rule:evenodd"
         id="path226"
         d="M -3.0518e-5,540 H 960 V 1.2207e-4 H -6.1035e-5" /></clipPath><clipPath
       id="clipPath238"
       clipPathUnits="userSpaceOnUse"><path
         style="clip-rule:evenodd"
         id="path236"
         d="M -6.1035e-5,540 H 960 V 6.1035e-5 L -9.1553e-5,1.2207e-4" /></clipPath><clipPath
       id="clipPath252"
       clipPathUnits="userSpaceOnUse"><path
         style="clip-rule:evenodd"
         id="path250"
         d="M 1.4305e-5,0 H 960.00001 V 540 H 1.4305e-5 Z" /></clipPath><clipPath
       id="clipPath264"
       clipPathUnits="userSpaceOnUse"><path
         style="clip-rule:evenodd"
         id="path262"
         d="M 1.4305e-5,0 H 960.00001 V 540 H 1.4305e-5 Z" /></clipPath><clipPath
       id="clipPath276"
       clipPathUnits="userSpaceOnUse"><path
         style="clip-rule:evenodd"
         id="path274"
         d="M 1.4305e-5,0 H 960.00001 V 540 H 1.4305e-5 Z" /></clipPath><clipPath
       id="clipPath288"
       clipPathUnits="userSpaceOnUse"><path
         style="clip-rule:evenodd"
         id="path286"
         d="M 1.4305e-5,0 H 960.00001 V 540 H 1.4305e-5 Z" /></clipPath><clipPath
       id="clipPath300"
       clipPathUnits="userSpaceOnUse"><path
         style="clip-rule:evenodd"
         id="path298"
         d="M 1.4305e-5,0 H 960.00001 V 540 H 1.4305e-5 Z" /></clipPath><clipPath
       id="clipPath312"
       clipPathUnits="userSpaceOnUse"><path
         style="clip-rule:evenodd"
         id="path310"
         d="M 1.4305e-5,0 H 960.00001 V 540 H 1.4305e-5 Z" /></clipPath></defs><g
     clip-path="url(#clipPath14)"
     transform="matrix(1.3333333,0,0,-1.3333333,-242.468,470.95733)"
     id="g10"><g
       id="g16"><g
         clip-path="url(#clipPath22)"
         id="g18"><path
           id="path24"
           style="fill:#ffffff;fill-opacity:1;fill-rule:evenodd;stroke:none"
           d="M 0,6.1035e-5 H 960 V 540.00006 H 0 Z" /></g></g><path
       id="path26"
       style="fill:#f19c99;fill-opacity:1;fill-rule:evenodd;stroke:none"
       d="m 653.22,331.74 c 0,9.34 7.63,16.92 17.04,16.92 9.41,0 17.04,-7.58 17.04,-16.92 0,-9.34 -7.63,-16.92 -17.04,-16.92 -9.41,0 -17.04,7.58 -17.04,16.92 z" /><path
       id="path28"
       style="fill:none;stroke:#000000;stroke-width:2.25;stroke-linecap:butt;stroke-linejoin:round;stroke-miterlimit:10;stroke-dasharray:none;stroke-opacity:1"
       d="m 653.22,331.74 c 0,9.34 7.63,16.92 17.04,16.92 9.41,0 17.04,-7.58 17.04,-16.92 0,-9.34 -7.63,-16.92 -17.04,-16.92 -9.41,0 -17.04,7.58 -17.04,16.92 z" /><path
       id="path30"
       style="fill:#f19c99;fill-opacity:1;fill-rule:evenodd;stroke:none"
       d="m 721.02,297.06 c 0,9.34 7.63,16.92 17.04,16.92 9.41,0 17.04,-7.58 17.04,-16.92 0,-9.34 -7.63,-16.92 -17.04,-16.92 -9.41,0 -17.04,7.58 -17.04,16.92 z" /><path
       id="path32"
       style="fill:none;stroke:#000000;stroke-width:2.25;stroke-linecap:butt;stroke-linejoin:round;stroke-miterlimit:10;stroke-dasharray:none;stroke-opacity:1"
       d="m 721.02,297.06 c 0,9.34 7.63,16.92 17.04,16.92 9.41,0 17.04,-7.58 17.04,-16.92 0,-9.34 -7.63,-16.92 -17.04,-16.92 -9.41,0 -17.04,7.58 -17.04,16.92 z" /><path
       id="path34"
       style="fill:#cc0066;fill-opacity:1;fill-rule:evenodd;stroke:none"
       d="m 653.1,195.54 c 0,9.34 7.6,16.92 16.98,16.92 9.38,0 16.98,-7.58 16.98,-16.92 0,-9.34 -7.6,-16.92 -16.98,-16.92 -9.38,0 -16.98,7.58 -16.98,16.92 z" /><path
       id="path36"
       style="fill:none;stroke:#000000;stroke-width:2.25;stroke-linecap:butt;stroke-linejoin:round;stroke-miterlimit:10;stroke-dasharray:none;stroke-opacity:1"
       d="m 653.1,195.54 c 0,9.34 7.6,16.92 16.98,16.92 9.38,0 16.98,-7.58 16.98,-16.92 0,-9.34 -7.6,-16.92 -16.98,-16.92 -9.38,0 -16.98,7.58 -16.98,16.92 z" /><path
       id="path38"
       style="fill:#cc0066;fill-opacity:1;fill-rule:evenodd;stroke:none"
       d="m 720.9,229.38 c 0,9.34 7.63,16.92 17.04,16.92 9.41,0 17.04,-7.58 17.04,-16.92 0,-9.34 -7.63,-16.92 -17.04,-16.92 -9.41,0 -17.04,7.58 -17.04,16.92 z" /><path
       id="path40"
       style="fill:none;stroke:#000000;stroke-width:2.25;stroke-linecap:butt;stroke-linejoin:round;stroke-miterlimit:10;stroke-dasharray:none;stroke-opacity:1"
       d="m 720.9,229.38 c 0,9.34 7.63,16.92 17.04,16.92 9.41,0 17.04,-7.58 17.04,-16.92 0,-9.34 -7.63,-16.92 -17.04,-16.92 -9.41,0 -17.04,7.58 -17.04,16.92 z" /><path
       id="path42"
       style="fill:#cc0066;fill-opacity:1;fill-rule:evenodd;stroke:none"
       d="m 585.18,229.62 c 0,9.34 7.63,16.92 17.04,16.92 9.41,0 17.04,-7.58 17.04,-16.92 0,-9.34 -7.63,-16.92 -17.04,-16.92 -9.41,0 -17.04,7.58 -17.04,16.92 z" /><path
       id="path44"
       style="fill:none;stroke:#000000;stroke-width:2.25;stroke-linecap:butt;stroke-linejoin:round;stroke-miterlimit:10;stroke-dasharray:none;stroke-opacity:1"
       d="m 585.18,229.62 c 0,9.34 7.63,16.92 17.04,16.92 9.41,0 17.04,-7.58 17.04,-16.92 0,-9.34 -7.63,-16.92 -17.04,-16.92 -9.41,0 -17.04,7.58 -17.04,16.92 z" /><path
       id="path46"
       style="fill:#f19c99;fill-opacity:1;fill-rule:evenodd;stroke:none"
       d="m 584.94,297.66 c 0,9.34 7.63,16.92 17.04,16.92 9.41,0 17.04,-7.58 17.04,-16.92 0,-9.34 -7.63,-16.92 -17.04,-16.92 -9.41,0 -17.04,7.58 -17.04,16.92 z" /><path
       id="path48"
       style="fill:none;stroke:#000000;stroke-width:2.25;stroke-linecap:butt;stroke-linejoin:round;stroke-miterlimit:10;stroke-dasharray:none;stroke-opacity:1"
       d="m 584.94,297.66 c 0,9.34 7.63,16.92 17.04,16.92 9.41,0 17.04,-7.58 17.04,-16.92 0,-9.34 -7.63,-16.92 -17.04,-16.92 -9.41,0 -17.04,7.58 -17.04,16.92 z" /><g
       id="g50"><path
         id="path52"
         style="fill:none;stroke:#767171;stroke-width:2.25;stroke-linecap:butt;stroke-linejoin:miter;stroke-miterlimit:8;stroke-dasharray:9, 6.75;stroke-dashoffset:0;stroke-opacity:1"
         d="M 670.26,314.82 V 280.27" /></g><g
       id="g54"><path
         id="path80"
         style="fill:url(#linearGradient78);fill-opacity:1;fill-rule:evenodd;stroke:none"
         d="m 653.22,263.46 c 0,9.34 7.63,16.92 17.04,16.92 9.41,0 17.04,-7.58 17.04,-16.92 0,-9.34 -7.63,-16.92 -17.04,-16.92 -9.41,0 -17.04,7.58 -17.04,16.92 z" /></g><path
       id="path82"
       style="fill:none;stroke:#000000;stroke-width:2.25;stroke-linecap:butt;stroke-linejoin:round;stroke-miterlimit:10;stroke-dasharray:none;stroke-opacity:1"
       d="m 653.22,263.46 c 0,9.34 7.63,16.92 17.04,16.92 9.41,0 17.04,-7.58 17.04,-16.92 0,-9.34 -7.63,-16.92 -17.04,-16.92 -9.41,0 -17.04,7.58 -17.04,16.92 z" /><path
       id="path84"
       style="fill:none;stroke:#767171;stroke-width:2.25;stroke-linecap:butt;stroke-linejoin:miter;stroke-miterlimit:8;stroke-dasharray:none;stroke-opacity:1"
       d="m 670.3,246.54 -0.16,-34.06" /><g
       id="g86"><path
         id="path88"
         style="fill:none;stroke:#767171;stroke-width:2.25;stroke-linecap:butt;stroke-linejoin:miter;stroke-miterlimit:8;stroke-dasharray:9, 6.75;stroke-dashoffset:0;stroke-opacity:1"
         d="m 619.26,229.6 39.03,21.86" /></g><path
       id="path90"
       style="fill:none;stroke:#767171;stroke-width:2.25;stroke-linecap:butt;stroke-linejoin:miter;stroke-miterlimit:8;stroke-dasharray:none;stroke-opacity:1"
       d="m 613.98,285.66 39.24,-22.31" /><path
       id="path92"
       style="fill:none;stroke:#767171;stroke-width:2.25;stroke-linecap:butt;stroke-linejoin:miter;stroke-miterlimit:8;stroke-dasharray:none;stroke-opacity:1"
       d="m 687.3,263.39 38.79,21.67" /><g
       id="g94"><path
         id="path96"
         style="fill:none;stroke:#767171;stroke-width:2.25;stroke-linecap:butt;stroke-linejoin:miter;stroke-miterlimit:8;stroke-dasharray:9, 6.75;stroke-dashoffset:0;stroke-opacity:1"
         d="m 682.26,251.46 38.66,-22.1" /></g><path
       id="path98"
       style="fill:none;stroke:#767171;stroke-width:2.25;stroke-linecap:butt;stroke-linejoin:miter;stroke-miterlimit:8;stroke-dasharray:none;stroke-opacity:1"
       d="m 737.94,246.28 0.13,33.86" /><path
       id="path100"
       style="fill:none;stroke:#767171;stroke-width:2.25;stroke-linecap:butt;stroke-linejoin:miter;stroke-miterlimit:8;stroke-dasharray:none;stroke-opacity:1"
       d="m 687.06,195.51 38.82,21.87" /><path
       id="path102"
       style="fill:none;stroke:#767171;stroke-width:2.25;stroke-linecap:butt;stroke-linejoin:miter;stroke-miterlimit:8;stroke-dasharray:none;stroke-opacity:1"
       d="m 601.98,280.74 0.21,-34.27" /><path
       id="path104"
       style="fill:none;stroke:#767171;stroke-width:2.25;stroke-linecap:butt;stroke-linejoin:miter;stroke-miterlimit:8;stroke-dasharray:none;stroke-opacity:1"
       d="M 726.09,308.95 687.3,331.74" /><g
       id="g106"><path
         id="path108"
         style="fill:none;stroke:#767171;stroke-width:2.25;stroke-linecap:butt;stroke-linejoin:miter;stroke-miterlimit:8;stroke-dasharray:18, 6.75, 2.25, 6.75;stroke-dashoffset:0;stroke-opacity:1"
         d="M 184.26,97.62 H 780.35" /></g><path
       id="path110"
       style="fill:#f19c99;fill-opacity:1;fill-rule:evenodd;stroke:none"
       d="m 359.16,261.12 c 0,8.62 5.94,15.6 13.26,15.6 7.32,0 13.26,-6.98 13.26,-15.6 0,-8.62 -5.94,-15.6 -13.26,-15.6 -7.32,0 -13.26,6.98 -13.26,15.6 z" /><path
       id="path112"
       style="fill:none;stroke:#000000;stroke-width:2.25;stroke-linecap:butt;stroke-linejoin:round;stroke-miterlimit:8;stroke-dasharray:none;stroke-opacity:1"
       d="m 351.78,261.54 c 0,9.34 7.6,16.92 16.98,16.92 9.38,0 16.98,-7.58 16.98,-16.92 0,-9.34 -7.6,-16.92 -16.98,-16.92 -9.38,0 -16.98,7.58 -16.98,16.92 z" /><path
       id="path114"
       style="fill:#f19c99;fill-opacity:1;fill-rule:evenodd;stroke:none"
       d="m 257.85,316.98 c 13.86,0 26.41,-5.61 35.49,-14.69 v 0 l -35.49,-35.47 35.49,-35.47 -7.43,-6.12 c -8.01,-5.41 -17.67,-8.57 -28.06,-8.57 -27.72,0 -50.19,22.46 -50.19,50.16 0,27.7 22.47,50.16 50.19,50.16 z" /><path
       id="path116"
       style="fill:none;stroke:#000000;stroke-width:2.25;stroke-linecap:butt;stroke-linejoin:miter;stroke-miterlimit:8;stroke-dasharray:none;stroke-opacity:1"
       d="m 257.85,316.98 c 13.86,0 26.41,-5.61 35.49,-14.69 v 0 l -35.49,-35.47 35.49,-35.47 -7.43,-6.12 c -8.01,-5.41 -17.67,-8.57 -28.06,-8.57 -27.72,0 -50.19,22.46 -50.19,50.16 0,27.7 22.47,50.16 50.19,50.16 z" /><path
       id="path118"
       style="fill:#ffffff;fill-opacity:1;fill-rule:evenodd;stroke:none"
       d="m 242.4,294 c 0,8.42 6.8,15.24 15.18,15.24 8.38,0 15.18,-6.82 15.18,-15.24 0,-8.42 -6.8,-15.24 -15.18,-15.24 -8.38,0 -15.18,6.82 -15.18,15.24 z" /><path
       id="path120"
       style="fill:#000000;fill-opacity:1;fill-rule:evenodd;stroke:none"
       d="m 256.2,294 c 0,4.31 3.47,7.8 7.74,7.8 4.27,0 7.74,-3.49 7.74,-7.8 0,-4.31 -3.47,-7.8 -7.74,-7.8 -4.27,0 -7.74,3.49 -7.74,7.8 z" /><path
       id="path122"
       style="fill:#ffffff;fill-opacity:1;fill-rule:evenodd;stroke:none"
       d="m 225.84,272.16 c 0,1.59 1.26,2.88 2.82,2.88 1.56,0 2.82,-1.29 2.82,-2.88 0,-1.59 -1.26,-2.88 -2.82,-2.88 -1.56,0 -2.82,1.29 -2.82,2.88 z" /><g
       id="g124"><g
         clip-path="url(#clipPath130)"
         id="g126"><path
           id="path132"
           style="fill:#ffffff;fill-opacity:1;fill-rule:evenodd;stroke:none"
           d="m 225.13,266.48 c 0.13,0.3 0.48,0.44 0.79,0.31 l 2.2,-0.95 c 0.31,-0.13 0.45,-0.48 0.31,-0.79 l -7.04,-16.31 c -0.13,-0.3 -0.49,-0.44 -0.79,-0.31 l -2.2,0.95 c -0.31,0.13 -0.45,0.49 -0.32,0.79 z" /></g></g><g
       id="g134"><g
         clip-path="url(#clipPath140)"
         id="g136"><text
           id="text144"
           style="font-variant:normal;font-weight:normal;font-size:48px;font-family:TimesNewRomanPSMT;-inkscape-font-specification:TimesNewRomanPSMT;writing-mode:lr-tb;fill:#3b3838;fill-opacity:1;fill-rule:nonzero;stroke:none"
           transform="matrix(1,0,0,-1,328.97,115.03)"><tspan
             id="tspan142"
             y="0"
             x="0">P</tspan></text>
</g></g><g
       id="g146"><g
         clip-path="url(#clipPath152)"
         id="g148"><text
           id="text156"
           style="font-variant:normal;font-weight:normal;font-size:48px;font-family:TimesNewRomanPSMT;-inkscape-font-specification:TimesNewRomanPSMT;writing-mode:lr-tb;fill:#3b3838;fill-opacity:1;fill-rule:nonzero;stroke:none"
           transform="matrix(1,0,0,-1,239.69,115.03)"><tspan
             id="tspan154"
             y="0"
             x="0">R</tspan></text>
</g></g><g
       id="g158"><g
         clip-path="url(#clipPath164)"
         id="g160"><text
           id="text168"
           style="font-variant:normal;font-weight:normal;font-size:48px;font-family:TimesNewRomanPSMT;-inkscape-font-specification:TimesNewRomanPSMT;writing-mode:lr-tb;fill:#3b3838;fill-opacity:1;fill-rule:nonzero;stroke:none"
           transform="matrix(1,0,0,-1,369.43,115.03)"><tspan
             id="tspan166"
             y="0"
             x="0">H</tspan></text>
</g></g><g
       id="g170"><g
         clip-path="url(#clipPath176)"
         id="g172"><text
           id="text180"
           style="font-variant:normal;font-weight:normal;font-size:48px;font-family:TimesNewRomanPSMT;-inkscape-font-specification:TimesNewRomanPSMT;writing-mode:lr-tb;fill:#3b3838;fill-opacity:1;fill-rule:nonzero;stroke:none"
           transform="matrix(1,0,0,-1,190.18,114.58)"><tspan
             id="tspan178"
             y="0"
             x="0">G</tspan></text>
</g></g><path
       id="path182"
       style="fill:#f19c99;fill-opacity:1;fill-rule:evenodd;stroke:none"
       d="m 300.3,149.16 c 8.36,0 15.23,-6.72 16.06,-15.33 l 0.08,-1.75 v 0 -22.4 l -5.77,6.11 -5.19,-5.49 -5.18,5.49 -5.18,-5.49 -5.19,5.49 -5.77,-6.11 v 22.4 0 l 0.08,1.75 c 0.83,8.61 7.7,15.33 16.06,15.33 z" /><path
       id="path184"
       style="fill:none;stroke:#000000;stroke-width:0.75;stroke-linecap:butt;stroke-linejoin:miter;stroke-miterlimit:8;stroke-dasharray:none;stroke-opacity:1"
       d="m 300.3,149.16 c 8.36,0 15.23,-6.72 16.06,-15.33 l 0.08,-1.75 v 0 -22.4 l -5.77,6.11 -5.19,-5.49 -5.18,5.49 -5.18,-5.49 -5.19,5.49 -5.77,-6.11 v 22.4 0 l 0.08,1.75 c 0.83,8.61 7.7,15.33 16.06,15.33 z" /><path
       id="path186"
       style="fill:#ffffff;fill-opacity:1;fill-rule:evenodd;stroke:none"
       d="m 300.96,133.2 c 0,2.85 2.18,5.16 4.86,5.16 2.68,0 4.86,-2.31 4.86,-5.16 0,-2.85 -2.18,-5.16 -4.86,-5.16 -2.68,0 -4.86,2.31 -4.86,5.16 z" /><path
       id="path188"
       style="fill:none;stroke:#000000;stroke-width:1;stroke-linecap:butt;stroke-linejoin:miter;stroke-miterlimit:8;stroke-dasharray:none;stroke-opacity:1"
       d="m 300.96,133.2 c 0,2.85 2.18,5.16 4.86,5.16 2.68,0 4.86,-2.31 4.86,-5.16 0,-2.85 -2.18,-5.16 -4.86,-5.16 -2.68,0 -4.86,2.31 -4.86,5.16 z" /><path
       id="path190"
       style="fill:#000000;fill-opacity:1;fill-rule:evenodd;stroke:none"
       d="m 301.32,133.2 c 0,1.46 1.13,2.64 2.52,2.64 1.39,0 2.52,-1.18 2.52,-2.64 0,-1.46 -1.13,-2.64 -2.52,-2.64 -1.39,0 -2.52,1.18 -2.52,2.64 z" /><path
       id="path192"
       style="fill:none;stroke:#000000;stroke-width:1;stroke-linecap:butt;stroke-linejoin:miter;stroke-miterlimit:8;stroke-dasharray:none;stroke-opacity:1"
       d="m 301.32,133.2 c 0,1.46 1.13,2.64 2.52,2.64 1.39,0 2.52,-1.18 2.52,-2.64 0,-1.46 -1.13,-2.64 -2.52,-2.64 -1.39,0 -2.52,1.18 -2.52,2.64 z" /><path
       id="path194"
       style="fill:#ffffff;fill-opacity:1;fill-rule:evenodd;stroke:none"
       d="m 289.92,133.2 c 0,2.85 2.18,5.16 4.86,5.16 2.68,0 4.86,-2.31 4.86,-5.16 0,-2.85 -2.18,-5.16 -4.86,-5.16 -2.68,0 -4.86,2.31 -4.86,5.16 z" /><path
       id="path196"
       style="fill:none;stroke:#000000;stroke-width:1;stroke-linecap:butt;stroke-linejoin:miter;stroke-miterlimit:8;stroke-dasharray:none;stroke-opacity:1"
       d="m 289.92,133.2 c 0,2.85 2.18,5.16 4.86,5.16 2.68,0 4.86,-2.31 4.86,-5.16 0,-2.85 -2.18,-5.16 -4.86,-5.16 -2.68,0 -4.86,2.31 -4.86,5.16 z" /><path
       id="path198"
       style="fill:#000000;fill-opacity:1;fill-rule:evenodd;stroke:none"
       d="m 290.28,133.2 c 0,1.46 1.1,2.64 2.46,2.64 1.36,0 2.46,-1.18 2.46,-2.64 0,-1.46 -1.1,-2.64 -2.46,-2.64 -1.36,0 -2.46,1.18 -2.46,2.64 z" /><path
       id="path200"
       style="fill:none;stroke:#000000;stroke-width:1;stroke-linecap:butt;stroke-linejoin:miter;stroke-miterlimit:8;stroke-dasharray:none;stroke-opacity:1"
       d="m 290.28,133.2 c 0,1.46 1.1,2.64 2.46,2.64 1.36,0 2.46,-1.18 2.46,-2.64 0,-1.46 -1.1,-2.64 -2.46,-2.64 -1.36,0 -2.46,1.18 -2.46,2.64 z" /><g
       id="g202"><g
         clip-path="url(#clipPath208)"
         id="g204"><path
           id="path210"
           style="fill:#f19c99;fill-opacity:1;fill-rule:evenodd;stroke:none"
           d="m 436.24,270.94 c 7.95,3.3 16.68,0.48 19.49,-6.3 2.81,-6.78 -1.37,-14.95 -9.32,-18.24 -7.96,-3.3 -16.69,-0.48 -19.49,6.3 -2.81,6.78 1.36,14.95 9.32,18.24 z" /></g></g><g
       id="g212"><g
         clip-path="url(#clipPath218)"
         id="g214"><path
           id="path220"
           style="fill:none;stroke:#000000;stroke-width:2.25;stroke-linecap:butt;stroke-linejoin:round;stroke-miterlimit:8;stroke-dasharray:none;stroke-opacity:1"
           d="m 433.85,278 c 8.63,3.58 18.54,-0.56 22.13,-9.23 3.6,-8.68 -0.48,-18.61 -9.11,-22.18 -8.63,-3.58 -18.54,0.56 -22.13,9.23 -3.6,8.68 0.48,18.61 9.11,22.18 z" /></g></g><g
       id="g222"><g
         clip-path="url(#clipPath228)"
         id="g224"><path
           id="path230"
           style="fill:#f19c99;fill-opacity:1;fill-rule:evenodd;stroke:none"
           d="m 502.78,255.34 c -5.26,6.83 -4.81,15.99 1,20.47 5.81,4.47 14.78,2.57 20.04,-4.25 5.26,-6.82 4.81,-15.98 -1,-20.46 -5.81,-4.48 -14.79,-2.58 -20.04,4.24 z" /></g></g><g
       id="g232"><g
         clip-path="url(#clipPath238)"
         id="g234"><path
           id="path240"
           style="fill:none;stroke:#000000;stroke-width:2.25;stroke-linecap:butt;stroke-linejoin:round;stroke-miterlimit:8;stroke-dasharray:none;stroke-opacity:1"
           d="m 496.58,251.2 c -5.7,7.4 -4.29,18.04 3.15,23.78 7.43,5.73 18.09,4.38 23.79,-3.02 5.7,-7.4 4.29,-18.04 -3.15,-23.78 -7.44,-5.73 -18.09,-4.38 -23.79,3.02 z" /></g></g><path
       id="path242"
       style="fill:#000000;fill-opacity:1;fill-rule:evenodd;stroke:none"
       d="m 425.34,132.3 c 0,0.8 0.64,1.44 1.44,1.44 0.8,0 1.44,-0.64 1.44,-1.44 0,-0.8 -0.64,-1.44 -1.44,-1.44 -0.8,0 -1.44,0.64 -1.44,1.44 z" /><path
       id="path244"
       style="fill:none;stroke:#44546a;stroke-width:1.5;stroke-linecap:butt;stroke-linejoin:round;stroke-miterlimit:8;stroke-dasharray:none;stroke-opacity:1"
       d="m 425.34,132.3 c 0,0.8 0.64,1.44 1.44,1.44 0.8,0 1.44,-0.64 1.44,-1.44 0,-0.8 -0.64,-1.44 -1.44,-1.44 -0.8,0 -1.44,0.64 -1.44,1.44 z" /><g
       id="g246"><g
         clip-path="url(#clipPath252)"
         id="g248"><text
           id="text256"
           style="font-variant:normal;font-weight:normal;font-size:48px;font-family:TimesNewRomanPSMT;-inkscape-font-specification:TimesNewRomanPSMT;writing-mode:lr-tb;fill:#3b3838;fill-opacity:1;fill-rule:nonzero;stroke:none"
           transform="matrix(1,0,0,-1,592.2,116.11)"><tspan
             id="tspan254"
             y="0"
             x="0">L</tspan></text>
</g></g><g
       id="g258"><g
         clip-path="url(#clipPath264)"
         id="g260"><text
           id="text268"
           style="font-variant:normal;font-weight:normal;font-size:48px;font-family:TimesNewRomanPSMT;-inkscape-font-specification:TimesNewRomanPSMT;writing-mode:lr-tb;fill:#3b3838;fill-opacity:1;fill-rule:nonzero;stroke:none"
           transform="matrix(1,0,0,-1,544.92,116.11)"><tspan
             id="tspan266"
             y="0"
             x="0">L</tspan></text>
</g></g><g
       id="g270"><g
         clip-path="url(#clipPath276)"
         id="g272"><text
           id="text280"
           style="font-variant:normal;font-weight:normal;font-size:48px;font-family:TimesNewRomanPSMT;-inkscape-font-specification:TimesNewRomanPSMT;writing-mode:lr-tb;fill:#3b3838;fill-opacity:1;fill-rule:nonzero;stroke:none"
           transform="matrix(1,0,0,-1,632.69,116.11)"><tspan
             id="tspan278"
             y="0"
             x="0">E</tspan></text>
</g></g><g
       id="g282"><g
         clip-path="url(#clipPath288)"
         id="g284"><text
           id="text292"
           style="font-variant:normal;font-weight:normal;font-size:48.02399826px;font-family:TimesNewRomanPSMT;-inkscape-font-specification:TimesNewRomanPSMT;writing-mode:lr-tb;fill:#3b3838;fill-opacity:1;fill-rule:nonzero;stroke:none"
           transform="matrix(1,0,0,-1,451.46,114.1)"><tspan
             id="tspan290"
             y="0"
             x="0">G</tspan></text>
</g></g><g
       id="g294"><g
         clip-path="url(#clipPath300)"
         id="g296"><text
           id="text304"
           style="font-variant:normal;font-weight:normal;font-size:48px;font-family:TimesNewRomanPSMT;-inkscape-font-specification:TimesNewRomanPSMT;writing-mode:lr-tb;fill:#3b3838;fill-opacity:1;fill-rule:nonzero;stroke:none"
           transform="matrix(1,0,0,-1,681.48,116.11)"><tspan
             id="tspan302"
             y="0"
             x="0">R</tspan></text>
</g></g><g
       id="g306"><g
         clip-path="url(#clipPath312)"
         id="g308"><text
           id="text316"
           style="font-variant:normal;font-weight:normal;font-size:48px;font-family:TimesNewRomanPSMT;-inkscape-font-specification:TimesNewRomanPSMT;writing-mode:lr-tb;fill:#3b3838;fill-opacity:1;fill-rule:nonzero;stroke:none"
           transform="matrix(1,0,0,-1,731.88,116.11)"><tspan
             id="tspan314"
             y="0"
             x="0">Y</tspan></text>
</g></g><path
       id="path318"
       style="fill:#cc0066;fill-opacity:1;fill-rule:evenodd;stroke:none"
       d="m 515.88,149.16 c 8.33,0 15.17,-6.72 16,-15.33 l 0.08,-1.75 v 0 -22.4 l -5.75,6.11 -5.17,-5.49 -5.16,5.49 -5.16,-5.49 -5.17,5.49 -5.75,-6.11 v 22.4 0 l 0.08,1.75 c 0.83,8.61 7.67,15.33 16,15.33 z" /><path
       id="path320"
       style="fill:none;stroke:#000000;stroke-width:0.75;stroke-linecap:butt;stroke-linejoin:miter;stroke-miterlimit:8;stroke-dasharray:none;stroke-opacity:1"
       d="m 515.88,149.16 c 8.33,0 15.17,-6.72 16,-15.33 l 0.08,-1.75 v 0 -22.4 l -5.75,6.11 -5.17,-5.49 -5.16,5.49 -5.16,-5.49 -5.17,5.49 -5.75,-6.11 v 22.4 0 l 0.08,1.75 c 0.83,8.61 7.67,15.33 16,15.33 z" /><path
       id="path322"
       style="fill:#ffffff;fill-opacity:1;fill-rule:evenodd;stroke:none"
       d="m 516.6,133.2 c 0,2.85 2.18,5.16 4.86,5.16 2.68,0 4.86,-2.31 4.86,-5.16 0,-2.85 -2.18,-5.16 -4.86,-5.16 -2.68,0 -4.86,2.31 -4.86,5.16 z" /><path
       id="path324"
       style="fill:none;stroke:#000000;stroke-width:1;stroke-linecap:butt;stroke-linejoin:miter;stroke-miterlimit:8;stroke-dasharray:none;stroke-opacity:1"
       d="m 516.6,133.2 c 0,2.85 2.18,5.16 4.86,5.16 2.68,0 4.86,-2.31 4.86,-5.16 0,-2.85 -2.18,-5.16 -4.86,-5.16 -2.68,0 -4.86,2.31 -4.86,5.16 z" /><path
       id="path326"
       style="fill:#000000;fill-opacity:1;fill-rule:evenodd;stroke:none"
       d="m 516.96,133.2 c 0,1.46 1.1,2.64 2.46,2.64 1.36,0 2.46,-1.18 2.46,-2.64 0,-1.46 -1.1,-2.64 -2.46,-2.64 -1.36,0 -2.46,1.18 -2.46,2.64 z" /><path
       id="path328"
       style="fill:none;stroke:#000000;stroke-width:1;stroke-linecap:butt;stroke-linejoin:miter;stroke-miterlimit:8;stroke-dasharray:none;stroke-opacity:1"
       d="m 516.96,133.2 c 0,1.46 1.1,2.64 2.46,2.64 1.36,0 2.46,-1.18 2.46,-2.64 0,-1.46 -1.1,-2.64 -2.46,-2.64 -1.36,0 -2.46,1.18 -2.46,2.64 z" /><path
       id="path330"
       style="fill:#ffffff;fill-opacity:1;fill-rule:evenodd;stroke:none"
       d="m 505.44,133.2 c 0,2.85 2.18,5.16 4.86,5.16 2.68,0 4.86,-2.31 4.86,-5.16 0,-2.85 -2.18,-5.16 -4.86,-5.16 -2.68,0 -4.86,2.31 -4.86,5.16 z" /><path
       id="path332"
       style="fill:none;stroke:#000000;stroke-width:1;stroke-linecap:butt;stroke-linejoin:miter;stroke-miterlimit:8;stroke-dasharray:none;stroke-opacity:1"
       d="m 505.44,133.2 c 0,2.85 2.18,5.16 4.86,5.16 2.68,0 4.86,-2.31 4.86,-5.16 0,-2.85 -2.18,-5.16 -4.86,-5.16 -2.68,0 -4.86,2.31 -4.86,5.16 z" /><path
       id="path334"
       style="fill:#000000;fill-opacity:1;fill-rule:evenodd;stroke:none"
       d="m 505.8,133.2 c 0,1.46 1.13,2.64 2.52,2.64 1.39,0 2.52,-1.18 2.52,-2.64 0,-1.46 -1.13,-2.64 -2.52,-2.64 -1.39,0 -2.52,1.18 -2.52,2.64 z" /><path
       id="path336"
       style="fill:none;stroke:#000000;stroke-width:1;stroke-linecap:butt;stroke-linejoin:miter;stroke-miterlimit:8;stroke-dasharray:none;stroke-opacity:1"
       d="m 505.8,133.2 c 0,1.46 1.13,2.64 2.52,2.64 1.39,0 2.52,-1.18 2.52,-2.64 0,-1.46 -1.13,-2.64 -2.52,-2.64 -1.39,0 -2.52,1.18 -2.52,2.64 z" /></g></svg>