<?xml version="1.0" encoding="UTF-8" standalone="no"?>
<svg
   xmlns:dc="http://purl.org/dc/elements/1.1/"
   xmlns:cc="http://creativecommons.org/ns#"
   xmlns:rdf="http://www.w3.org/1999/02/22-rdf-syntax-ns#"
   xmlns:svg="http://www.w3.org/2000/svg"
   xmlns="http://www.w3.org/2000/svg"
   viewBox="0 0 800.55469 327.948"
   height="327.948"
   width="800.55469"
   xml:space="preserve"
   id="svg2"
   version="1.1"><metadata
     id="metadata8"><rdf:RDF><cc:Work
         rdf:about=""><dc:format>image/svg+xml</dc:format><dc:type
           rdf:resource="http://purl.org/dc/dcmitype/StillImage" /></cc:Work></rdf:RDF></metadata><defs
     id="defs6"><clipPath
       id="clipPath14"
       clipPathUnits="userSpaceOnUse"><path
         id="path12"
         d="M 0,0 H 960 V 540 H 0 Z" /></clipPath><clipPath
       id="clipPath22"
       clipPathUnits="userSpaceOnUse"><path
         style="clip-rule:evenodd"
         id="path20"
         d="M 0,1.2207e-4 H 960 V 540.00012 H 0 Z" /></clipPath><clipPath
       id="clipPath48"
       clipPathUnits="userSpaceOnUse"><path
         style="clip-rule:evenodd"
         id="path46"
         d="M -6.1035e-5,540 H 960 V 1.8311e-4 H -3.0518e-5" /></clipPath><clipPath
       id="clipPath58"
       clipPathUnits="userSpaceOnUse"><path
         style="clip-rule:evenodd"
         id="path56"
         d="M 0,540 H 960 V 2.4414e-4 L 0,1.8311e-4" /></clipPath><clipPath
       id="clipPath68"
       clipPathUnits="userSpaceOnUse"><path
         style="clip-rule:evenodd"
         id="path66"
         d="M 0,540 H 960 V 2.4414e-4 L 0,1.8311e-4" /></clipPath><clipPath
       id="clipPath78"
       clipPathUnits="userSpaceOnUse"><path
         style="clip-rule:evenodd"
         id="path76"
         d="M -3.0518e-5,540 H 960 V 2.4414e-4 L 0,1.8311e-4" /></clipPath><clipPath
       id="clipPath88"
       clipPathUnits="userSpaceOnUse"><path
         style="clip-rule:evenodd"
         id="path86"
         d="M -6.1035e-5,540 H 960 V 6.1035e-5 H -1.2207e-4" /></clipPath><clipPath
       id="clipPath98"
       clipPathUnits="userSpaceOnUse"><path
         style="clip-rule:evenodd"
         id="path96"
         d="M -6.1035e-5,540 H 960 V 6.1035e-5 H -1.2207e-4" /></clipPath><clipPath
       id="clipPath108"
       clipPathUnits="userSpaceOnUse"><path
         style="clip-rule:evenodd"
         id="path106"
         d="M -3.0518e-5,540 H 960 V 1.2207e-4 H -3.0518e-5" /></clipPath><clipPath
       id="clipPath126"
       clipPathUnits="userSpaceOnUse"><path
         style="clip-rule:evenodd"
         id="path124"
         d="M 1.4305e-5,0 H 960.00001 V 540 H 1.4305e-5 Z" /></clipPath><clipPath
       id="clipPath138"
       clipPathUnits="userSpaceOnUse"><path
         style="clip-rule:evenodd"
         id="path136"
         d="M 1.4305e-5,0 H 960.00001 V 540 H 1.4305e-5 Z" /></clipPath><clipPath
       id="clipPath150"
       clipPathUnits="userSpaceOnUse"><path
         style="clip-rule:evenodd"
         id="path148"
         d="M 1.4305e-5,0 H 960.00001 V 540 H 1.4305e-5 Z" /></clipPath><clipPath
       id="clipPath162"
       clipPathUnits="userSpaceOnUse"><path
         style="clip-rule:evenodd"
         id="path160"
         d="M 1.4305e-5,0 H 960.00001 V 540 H 1.4305e-5 Z" /></clipPath><clipPath
       id="clipPath194"
       clipPathUnits="userSpaceOnUse"><path
         style="clip-rule:evenodd"
         id="path192"
         d="M 1.4305e-5,0 H 960.00001 V 540 H 1.4305e-5 Z" /></clipPath><clipPath
       id="clipPath206"
       clipPathUnits="userSpaceOnUse"><path
         style="clip-rule:evenodd"
         id="path204"
         d="M 1.4305e-5,0 H 960.00001 V 540 H 1.4305e-5 Z" /></clipPath><clipPath
       id="clipPath218"
       clipPathUnits="userSpaceOnUse"><path
         style="clip-rule:evenodd"
         id="path216"
         d="M 1.4305e-5,0 H 960.00001 V 540 H 1.4305e-5 Z" /></clipPath><clipPath
       id="clipPath230"
       clipPathUnits="userSpaceOnUse"><path
         style="clip-rule:evenodd"
         id="path228"
         d="M 1.4305e-5,0 H 960.00001 V 540 H 1.4305e-5 Z" /></clipPath><clipPath
       id="clipPath242"
       clipPathUnits="userSpaceOnUse"><path
         style="clip-rule:evenodd"
         id="path240"
         d="M 1.4305e-5,0 H 960.00001 V 540 H 1.4305e-5 Z" /></clipPath><clipPath
       id="clipPath254"
       clipPathUnits="userSpaceOnUse"><path
         style="clip-rule:evenodd"
         id="path252"
         d="M 1.4305e-5,0 H 960.00001 V 540 H 1.4305e-5 Z" /></clipPath><radialGradient
       id="radialGradient344"
       spreadMethod="pad"
       gradientTransform="matrix(47.942,0,0,47.942,732.3,277.98)"
       gradientUnits="userSpaceOnUse"
       r="1"
       cy="0"
       cx="0"
       fy="0"
       fx="0"><stop
         id="stop334"
         offset="0"
         style="stop-opacity:1;stop-color:#ea7f90" /><stop
         id="stop336"
         offset="0.24"
         style="stop-opacity:1;stop-color:#ea7f90" /><stop
         id="stop338"
         offset="0.74"
         style="stop-opacity:1;stop-color:#cc0066" /><stop
         id="stop340"
         offset="0.82"
         style="stop-opacity:1;stop-color:#cc0066" /><stop
         id="stop342"
         offset="1"
         style="stop-opacity:1;stop-color:#cc0066" /></radialGradient><linearGradient
       id="linearGradient362"
       spreadMethod="pad"
       gradientUnits="userSpaceOnUse"
       y2="176.39999"
       x2="664.44"
       y1="244.32001"
       x1="732.12"><stop
         id="stop352"
         offset="0"
         style="stop-opacity:1;stop-color:#db0066" /><stop
         id="stop354"
         offset="0.43"
         style="stop-opacity:1;stop-color:#b80054" /><stop
         id="stop356"
         offset="0.5"
         style="stop-opacity:1;stop-color:#7f0038" /><stop
         id="stop358"
         offset="0.57"
         style="stop-opacity:1;stop-color:#b80054" /><stop
         id="stop360"
         offset="1"
         style="stop-opacity:1;stop-color:#db0066" /></linearGradient><linearGradient
       id="linearGradient392"
       spreadMethod="pad"
       gradientUnits="userSpaceOnUse"
       y2="242.57001"
       x2="730.85999"
       y1="181.16"
       x1="804.04999"><stop
         id="stop370"
         offset="0"
         style="stop-opacity:1;stop-color:#fad8c1" /><stop
         id="stop372"
         offset="0.02"
         style="stop-opacity:1;stop-color:#fad8c1" /><stop
         id="stop374"
         offset="0.075"
         style="stop-opacity:1;stop-color:#f7c4a2" /><stop
         id="stop376"
         offset="0.18"
         style="stop-opacity:1;stop-color:#f19c99" /><stop
         id="stop378"
         offset="0.455"
         style="stop-opacity:1;stop-color:#e6e6e6" /><stop
         id="stop380"
         offset="0.5"
         style="stop-opacity:1;stop-color:#e6e6e6" /><stop
         id="stop382"
         offset="0.545"
         style="stop-opacity:1;stop-color:#e6e6e6" /><stop
         id="stop384"
         offset="0.82"
         style="stop-opacity:1;stop-color:#f19c99" /><stop
         id="stop386"
         offset="0.925"
         style="stop-opacity:1;stop-color:#f7c4a2" /><stop
         id="stop388"
         offset="0.98"
         style="stop-opacity:1;stop-color:#fad8c1" /><stop
         id="stop390"
         offset="1"
         style="stop-opacity:1;stop-color:#fad8c1" /></linearGradient><linearGradient
       id="linearGradient426"
       spreadMethod="pad"
       gradientUnits="userSpaceOnUse"
       y2="276.64999"
       x2="663.17999"
       y1="215.24001"
       x1="736.37"><stop
         id="stop404"
         offset="0"
         style="stop-opacity:1;stop-color:#fad8c1" /><stop
         id="stop406"
         offset="0.02"
         style="stop-opacity:1;stop-color:#fad8c1" /><stop
         id="stop408"
         offset="0.075"
         style="stop-opacity:1;stop-color:#f7c4a2" /><stop
         id="stop410"
         offset="0.16"
         style="stop-opacity:1;stop-color:#f19c99" /><stop
         id="stop412"
         offset="0.42"
         style="stop-opacity:1;stop-color:#cc0066" /><stop
         id="stop414"
         offset="0.5"
         style="stop-opacity:1;stop-color:#cc0066" /><stop
         id="stop416"
         offset="0.58"
         style="stop-opacity:1;stop-color:#cc0066" /><stop
         id="stop418"
         offset="0.84"
         style="stop-opacity:1;stop-color:#f19c99" /><stop
         id="stop420"
         offset="0.925"
         style="stop-opacity:1;stop-color:#f7c4a2" /><stop
         id="stop422"
         offset="0.98"
         style="stop-opacity:1;stop-color:#fad8c1" /><stop
         id="stop424"
         offset="1"
         style="stop-opacity:1;stop-color:#fad8c1" /></linearGradient><linearGradient
       id="linearGradient468"
       spreadMethod="pad"
       gradientUnits="userSpaceOnUse"
       y2="227.22"
       x2="630.06"
       y1="227.22"
       x1="562.14001"><stop
         id="stop454"
         offset="0"
         style="stop-opacity:1;stop-color:#cc0066" /><stop
         id="stop456"
         offset="0.01"
         style="stop-opacity:1;stop-color:#cc0066" /><stop
         id="stop458"
         offset="0.445"
         style="stop-opacity:1;stop-color:#f19c99" /><stop
         id="stop460"
         offset="0.5"
         style="stop-opacity:1;stop-color:#f19c99" /><stop
         id="stop462"
         offset="0.555"
         style="stop-opacity:1;stop-color:#f19c99" /><stop
         id="stop464"
         offset="0.99"
         style="stop-opacity:1;stop-color:#cc0066" /><stop
         id="stop466"
         offset="1"
         style="stop-opacity:1;stop-color:#cc0066" /></linearGradient><linearGradient
       id="linearGradient504"
       spreadMethod="pad"
       gradientUnits="userSpaceOnUse"
       y2="344.69"
       x2="663.06"
       y1="283.28"
       x1="736.25"><stop
         id="stop482"
         offset="0"
         style="stop-opacity:1;stop-color:#fad8c1" /><stop
         id="stop484"
         offset="0.02"
         style="stop-opacity:1;stop-color:#fad8c1" /><stop
         id="stop486"
         offset="0.075"
         style="stop-opacity:1;stop-color:#f7c4a2" /><stop
         id="stop488"
         offset="0.24"
         style="stop-opacity:1;stop-color:#f19c99" /><stop
         id="stop490"
         offset="0.4"
         style="stop-opacity:1;stop-color:#cc0066" /><stop
         id="stop492"
         offset="0.5"
         style="stop-opacity:1;stop-color:#cc0066" /><stop
         id="stop494"
         offset="0.6"
         style="stop-opacity:1;stop-color:#cc0066" /><stop
         id="stop496"
         offset="0.76"
         style="stop-opacity:1;stop-color:#f19c99" /><stop
         id="stop498"
         offset="0.925"
         style="stop-opacity:1;stop-color:#f7c4a2" /><stop
         id="stop500"
         offset="0.98"
         style="stop-opacity:1;stop-color:#fad8c1" /><stop
         id="stop502"
         offset="1"
         style="stop-opacity:1;stop-color:#fad8c1" /></linearGradient><linearGradient
       id="linearGradient534"
       spreadMethod="pad"
       gradientUnits="userSpaceOnUse"
       y2="310.53"
       x2="595.40997"
       y1="249.22"
       x1="668.47998"><stop
         id="stop512"
         offset="0"
         style="stop-opacity:1;stop-color:#fad8c1" /><stop
         id="stop514"
         offset="0.02"
         style="stop-opacity:1;stop-color:#fad8c1" /><stop
         id="stop516"
         offset="0.075"
         style="stop-opacity:1;stop-color:#f7c4a2" /><stop
         id="stop518"
         offset="0.18"
         style="stop-opacity:1;stop-color:#f19c99" /><stop
         id="stop520"
         offset="0.455"
         style="stop-opacity:1;stop-color:#e6e6e6" /><stop
         id="stop522"
         offset="0.5"
         style="stop-opacity:1;stop-color:#e6e6e6" /><stop
         id="stop524"
         offset="0.545"
         style="stop-opacity:1;stop-color:#e6e6e6" /><stop
         id="stop526"
         offset="0.82"
         style="stop-opacity:1;stop-color:#f19c99" /><stop
         id="stop528"
         offset="0.925"
         style="stop-opacity:1;stop-color:#f7c4a2" /><stop
         id="stop530"
         offset="0.98"
         style="stop-opacity:1;stop-color:#fad8c1" /><stop
         id="stop532"
         offset="1"
         style="stop-opacity:1;stop-color:#fad8c1" /></linearGradient></defs><g
     clip-path="url(#clipPath14)"
     transform="matrix(1.3333333,0,0,-1.3333333,-283.564,466.02533)"
     id="g10"><g
       id="g16"><g
         clip-path="url(#clipPath22)"
         id="g18"><path
           id="path24"
           style="fill:#ffffff;fill-opacity:1;fill-rule:evenodd;stroke:none"
           d="M 0,6.1035e-5 H 960 V 540.00006 H 0 Z" /></g></g><path
       id="path26"
       style="fill:#f19c99;fill-opacity:1;fill-rule:evenodd;stroke:none"
       d="m 387.24,270.3 c 0,7.79 4,14.1 8.94,14.1 4.94,0 8.94,-6.31 8.94,-14.1 0,-7.79 -4,-14.1 -8.94,-14.1 -4.94,0 -8.94,6.31 -8.94,14.1 z" /><path
       id="path28"
       style="fill:none;stroke:#767171;stroke-width:1;stroke-linecap:butt;stroke-linejoin:miter;stroke-miterlimit:10;stroke-dasharray:none;stroke-opacity:1"
       d="m 387.24,270.3 c 0,7.79 4,14.1 8.94,14.1 4.94,0 8.94,-6.31 8.94,-14.1 0,-7.79 -4,-14.1 -8.94,-14.1 -4.94,0 -8.94,6.31 -8.94,14.1 z" /><path
       id="path30"
       style="fill:none;stroke:#767171;stroke-width:2.25;stroke-linecap:butt;stroke-linejoin:round;stroke-miterlimit:10;stroke-dasharray:none;stroke-opacity:1"
       d="m 371.94,270.3 c 0,9.34 7.63,16.92 17.04,16.92 9.41,0 17.04,-7.58 17.04,-16.92 0,-9.34 -7.63,-16.92 -17.04,-16.92 -9.41,0 -17.04,7.58 -17.04,16.92 z" /><path
       id="path32"
       style="fill:#f19c99;fill-opacity:1;fill-rule:evenodd;stroke:none"
       d="m 285.93,313.62 c 13.86,0 26.41,-5.62 35.49,-14.71 v 0 l -35.49,-35.51 35.49,-35.51 -7.43,-6.13 c -8.01,-5.42 -17.67,-8.58 -28.06,-8.58 -27.72,0 -50.19,22.48 -50.19,50.22 0,27.74 22.47,50.22 50.19,50.22 z" /><path
       id="path34"
       style="fill:none;stroke:#595959;stroke-width:2.25;stroke-linecap:butt;stroke-linejoin:miter;stroke-miterlimit:8;stroke-dasharray:none;stroke-opacity:1"
       d="m 285.93,313.62 c 13.86,0 26.41,-5.62 35.49,-14.71 v 0 l -35.49,-35.51 35.49,-35.51 -7.43,-6.13 c -8.01,-5.42 -17.67,-8.58 -28.06,-8.58 -27.72,0 -50.19,22.48 -50.19,50.22 0,27.74 22.47,50.22 50.19,50.22 z" /><path
       id="path36"
       style="fill:#ffffff;fill-opacity:1;fill-rule:evenodd;stroke:none"
       d="m 270.36,290.58 c 0,8.38 6.8,15.18 15.18,15.18 8.38,0 15.18,-6.8 15.18,-15.18 0,-8.38 -6.8,-15.18 -15.18,-15.18 -8.38,0 -15.18,6.8 -15.18,15.18 z" /><path
       id="path38"
       style="fill:#000000;fill-opacity:1;fill-rule:evenodd;stroke:none"
       d="m 284.16,290.58 c 0,4.27 3.47,7.74 7.74,7.74 4.27,0 7.74,-3.47 7.74,-7.74 0,-4.27 -3.47,-7.74 -7.74,-7.74 -4.27,0 -7.74,3.47 -7.74,7.74 z" /><path
       id="path40"
       style="fill:#ffffff;fill-opacity:1;fill-rule:evenodd;stroke:none"
       d="m 269.4,261.6 c 0,2.92 2.34,5.28 5.22,5.28 2.88,0 5.22,-2.36 5.22,-5.28 0,-2.92 -2.34,-5.28 -5.22,-5.28 -2.88,0 -5.22,2.36 -5.22,5.28 z" /><g
       id="g42"><g
         clip-path="url(#clipPath48)"
         id="g44"><path
           id="path50"
           style="fill:#ffffff;fill-opacity:1;fill-rule:evenodd;stroke:none"
           d="m 265.25,256.95 c 0.44,0.52 1.23,0.58 1.75,0.14 l 3.77,-3.21 c 0.52,-0.45 0.58,-1.23 0.14,-1.75 L 256.49,235.2 c -0.45,-0.52 -1.23,-0.58 -1.75,-0.14 l -3.77,3.22 c -0.52,0.44 -0.59,1.23 -0.14,1.75 z" /></g></g><g
       id="g52"><g
         clip-path="url(#clipPath58)"
         id="g54"><path
           id="path60"
           style="fill:#f19c99;fill-opacity:1;fill-rule:evenodd;stroke:none"
           d="m 459.99,258.15 c 7.96,3.3 16.2,1.65 18.4,-3.67 2.21,-5.32 -2.45,-12.31 -10.41,-15.61 -7.96,-3.3 -16.19,-1.65 -18.4,3.67 -2.21,5.33 2.46,12.31 10.41,15.61 z" /></g></g><g
       id="g62"><g
         clip-path="url(#clipPath68)"
         id="g64"><path
           id="path70"
           style="fill:none;stroke:#767171;stroke-width:1;stroke-linecap:butt;stroke-linejoin:miter;stroke-miterlimit:8;stroke-dasharray:none;stroke-opacity:1"
           d="m 459.99,258.15 c 7.96,3.3 16.2,1.65 18.4,-3.67 2.21,-5.32 -2.45,-12.31 -10.41,-15.61 -7.96,-3.3 -16.19,-1.65 -18.4,3.67 -2.21,5.33 2.46,12.31 10.41,15.61 z" /></g></g><g
       id="g72"><g
         clip-path="url(#clipPath78)"
         id="g74"><path
           id="path80"
           style="fill:none;stroke:#767171;stroke-width:2.25;stroke-linecap:butt;stroke-linejoin:round;stroke-miterlimit:8;stroke-dasharray:none;stroke-opacity:1"
           d="m 455.44,269.35 c 8.63,3.58 18.54,-0.56 22.13,-9.23 3.6,-8.68 -0.48,-18.61 -9.11,-22.18 -8.63,-3.58 -18.54,0.56 -22.13,9.23 -3.6,8.68 0.48,18.61 9.11,22.18 z" /></g></g><g
       id="g82"><g
         clip-path="url(#clipPath88)"
         id="g84"><path
           id="path90"
           style="fill:#f19c99;fill-opacity:1;fill-rule:evenodd;stroke:none"
           d="m 529.7,265.87 c -5.26,6.82 -5.33,15.58 -0.15,19.57 5.18,3.99 13.64,1.7 18.89,-5.13 5.26,-6.82 5.33,-15.58 0.15,-19.57 -5.18,-3.99 -13.64,-1.69 -18.89,5.13 z" /></g></g><g
       id="g92"><g
         clip-path="url(#clipPath98)"
         id="g94"><path
           id="path100"
           style="fill:none;stroke:#767171;stroke-width:1;stroke-linecap:butt;stroke-linejoin:miter;stroke-miterlimit:8;stroke-dasharray:none;stroke-opacity:1"
           d="m 529.7,265.87 c -5.26,6.82 -5.33,15.58 -0.15,19.57 5.18,3.99 13.64,1.7 18.89,-5.13 5.26,-6.82 5.33,-15.58 0.15,-19.57 -5.18,-3.99 -13.64,-1.69 -18.89,5.13 z" /></g></g><g
       id="g102"><g
         clip-path="url(#clipPath108)"
         id="g104"><path
           id="path110"
           style="fill:none;stroke:#767171;stroke-width:2.25;stroke-linecap:butt;stroke-linejoin:round;stroke-miterlimit:8;stroke-dasharray:none;stroke-opacity:1"
           d="m 521.7,259.95 c -5.7,7.4 -4.29,18.05 3.15,23.78 7.44,5.73 18.09,4.38 23.79,-3.02 5.7,-7.4 4.29,-18.04 -3.15,-23.77 -7.44,-5.73 -18.09,-4.38 -23.79,3.01 z" /></g></g><path
       id="path112"
       style="fill:none;stroke:#767171;stroke-width:2.25;stroke-linecap:butt;stroke-linejoin:miter;stroke-miterlimit:8;stroke-dasharray:none;stroke-opacity:1"
       d="M 518.41,272.46 477.66,247.11" /><path
       id="path114"
       style="fill:none;stroke:#767171;stroke-width:2.25;stroke-linecap:butt;stroke-linejoin:miter;stroke-miterlimit:8;stroke-dasharray:none;stroke-opacity:1"
       d="m 446.36,247.05 -41.18,23.13" /><g
       id="g116"><path
         id="path118"
         style="fill:none;stroke:#767171;stroke-width:2.25;stroke-linecap:butt;stroke-linejoin:miter;stroke-miterlimit:8;stroke-dasharray:18, 6.75, 2.25, 6.75;stroke-dashoffset:0;stroke-opacity:1"
         d="M 216.78,108.66 H 812.87" /></g><g
       id="g120"><g
         clip-path="url(#clipPath126)"
         id="g122"><text
           id="text130"
           style="font-variant:normal;font-weight:normal;font-size:48.02399826px;font-family:TimesNewRomanPSMT;-inkscape-font-specification:TimesNewRomanPSMT;writing-mode:lr-tb;fill:#3b3838;fill-opacity:1;fill-rule:nonzero;stroke:none"
           transform="matrix(1,0,0,-1,361.46,120.55)"><tspan
             id="tspan128"
             y="0"
             x="0">P</tspan></text>
</g></g><g
       id="g132"><g
         clip-path="url(#clipPath138)"
         id="g134"><text
           id="text142"
           style="font-variant:normal;font-weight:normal;font-size:48.02399826px;font-family:TimesNewRomanPSMT;-inkscape-font-specification:TimesNewRomanPSMT;writing-mode:lr-tb;fill:#3b3838;fill-opacity:1;fill-rule:nonzero;stroke:none"
           transform="matrix(1,0,0,-1,269.45,120.55)"><tspan
             id="tspan140"
             y="0"
             x="0">R</tspan></text>
</g></g><g
       id="g144"><g
         clip-path="url(#clipPath150)"
         id="g146"><text
           id="text154"
           style="font-variant:normal;font-weight:normal;font-size:48.02399826px;font-family:TimesNewRomanPSMT;-inkscape-font-specification:TimesNewRomanPSMT;writing-mode:lr-tb;fill:#3b3838;fill-opacity:1;fill-rule:nonzero;stroke:none"
           transform="matrix(1,0,0,-1,401.95,120.55)"><tspan
             id="tspan152"
             y="0"
             x="0">H</tspan></text>
</g></g><g
       id="g156"><g
         clip-path="url(#clipPath162)"
         id="g158"><text
           id="text166"
           style="font-variant:normal;font-weight:normal;font-size:48px;font-family:TimesNewRomanPSMT;-inkscape-font-specification:TimesNewRomanPSMT;writing-mode:lr-tb;fill:#3b3838;fill-opacity:1;fill-rule:nonzero;stroke:none"
           transform="matrix(1,0,0,-1,222.7,120.1)"><tspan
             id="tspan164"
             y="0"
             x="0">G</tspan></text>
</g></g><path
       id="path168"
       style="fill:#f19c99;fill-opacity:1;fill-rule:evenodd;stroke:none"
       d="m 330.66,157.44 c 7.55,0 13.76,-6.72 14.5,-15.33 l 0.08,-1.75 v 0 -22.4 l -5.21,6.11 -4.69,-5.49 -4.68,5.49 -4.68,-5.49 -4.69,5.49 -5.21,-6.11 v 22.4 0 l 0.08,1.75 c 0.74,8.61 6.95,15.33 14.5,15.33 z" /><path
       id="path170"
       style="fill:none;stroke:#000000;stroke-width:0.75;stroke-linecap:butt;stroke-linejoin:miter;stroke-miterlimit:8;stroke-dasharray:none;stroke-opacity:1"
       d="m 330.66,157.44 c 7.55,0 13.76,-6.72 14.5,-15.33 l 0.08,-1.75 v 0 -22.4 l -5.21,6.11 -4.69,-5.49 -4.68,5.49 -4.68,-5.49 -4.69,5.49 -5.21,-6.11 v 22.4 0 l 0.08,1.75 c 0.74,8.61 6.95,15.33 14.5,15.33 z" /><path
       id="path172"
       style="fill:#ffffff;fill-opacity:1;fill-rule:evenodd;stroke:none"
       d="m 331.32,141.48 c 0,2.85 1.96,5.16 4.38,5.16 2.42,0 4.38,-2.31 4.38,-5.16 0,-2.85 -1.96,-5.16 -4.38,-5.16 -2.42,0 -4.38,2.31 -4.38,5.16 z" /><path
       id="path174"
       style="fill:none;stroke:#000000;stroke-width:1;stroke-linecap:butt;stroke-linejoin:miter;stroke-miterlimit:8;stroke-dasharray:none;stroke-opacity:1"
       d="m 331.32,141.48 c 0,2.85 1.96,5.16 4.38,5.16 2.42,0 4.38,-2.31 4.38,-5.16 0,-2.85 -1.96,-5.16 -4.38,-5.16 -2.42,0 -4.38,2.31 -4.38,5.16 z" /><path
       id="path176"
       style="fill:#000000;fill-opacity:1;fill-rule:evenodd;stroke:none"
       d="m 331.68,141.48 c 0,1.46 0.99,2.64 2.22,2.64 1.23,0 2.22,-1.18 2.22,-2.64 0,-1.46 -0.99,-2.64 -2.22,-2.64 -1.23,0 -2.22,1.18 -2.22,2.64 z" /><path
       id="path178"
       style="fill:none;stroke:#000000;stroke-width:1;stroke-linecap:butt;stroke-linejoin:miter;stroke-miterlimit:8;stroke-dasharray:none;stroke-opacity:1"
       d="m 331.68,141.48 c 0,1.46 0.99,2.64 2.22,2.64 1.23,0 2.22,-1.18 2.22,-2.64 0,-1.46 -0.99,-2.64 -2.22,-2.64 -1.23,0 -2.22,1.18 -2.22,2.64 z" /><path
       id="path180"
       style="fill:#ffffff;fill-opacity:1;fill-rule:evenodd;stroke:none"
       d="m 321.24,141.48 c 0,2.85 1.99,5.16 4.44,5.16 2.45,0 4.44,-2.31 4.44,-5.16 0,-2.85 -1.99,-5.16 -4.44,-5.16 -2.45,0 -4.44,2.31 -4.44,5.16 z" /><path
       id="path182"
       style="fill:none;stroke:#000000;stroke-width:1;stroke-linecap:butt;stroke-linejoin:miter;stroke-miterlimit:8;stroke-dasharray:none;stroke-opacity:1"
       d="m 321.24,141.48 c 0,2.85 1.99,5.16 4.44,5.16 2.45,0 4.44,-2.31 4.44,-5.16 0,-2.85 -1.99,-5.16 -4.44,-5.16 -2.45,0 -4.44,2.31 -4.44,5.16 z" /><path
       id="path184"
       style="fill:#000000;fill-opacity:1;fill-rule:evenodd;stroke:none"
       d="m 321.6,141.48 c 0,1.46 0.99,2.64 2.22,2.64 1.23,0 2.22,-1.18 2.22,-2.64 0,-1.46 -0.99,-2.64 -2.22,-2.64 -1.23,0 -2.22,1.18 -2.22,2.64 z" /><path
       id="path186"
       style="fill:none;stroke:#000000;stroke-width:1;stroke-linecap:butt;stroke-linejoin:miter;stroke-miterlimit:8;stroke-dasharray:none;stroke-opacity:1"
       d="m 321.6,141.48 c 0,1.46 0.99,2.64 2.22,2.64 1.23,0 2.22,-1.18 2.22,-2.64 0,-1.46 -0.99,-2.64 -2.22,-2.64 -1.23,0 -2.22,1.18 -2.22,2.64 z" /><g
       id="g188"><g
         clip-path="url(#clipPath194)"
         id="g190"><text
           id="text198"
           style="font-variant:normal;font-weight:normal;font-size:48px;font-family:TimesNewRomanPSMT;-inkscape-font-specification:TimesNewRomanPSMT;writing-mode:lr-tb;fill:#3b3838;fill-opacity:1;fill-rule:nonzero;stroke:none"
           transform="matrix(1,0,0,-1,622.63,121.63)"><tspan
             id="tspan196"
             y="0"
             x="0">L</tspan></text>
</g></g><g
       id="g200"><g
         clip-path="url(#clipPath206)"
         id="g202"><text
           id="text210"
           style="font-variant:normal;font-weight:normal;font-size:48px;font-family:TimesNewRomanPSMT;-inkscape-font-specification:TimesNewRomanPSMT;writing-mode:lr-tb;fill:#3b3838;fill-opacity:1;fill-rule:nonzero;stroke:none"
           transform="matrix(1,0,0,-1,578.81,121.63)"><tspan
             id="tspan208"
             y="0"
             x="0">L</tspan></text>
</g></g><g
       id="g212"><g
         clip-path="url(#clipPath218)"
         id="g214"><text
           id="text222"
           style="font-variant:normal;font-weight:normal;font-size:48px;font-family:TimesNewRomanPSMT;-inkscape-font-specification:TimesNewRomanPSMT;writing-mode:lr-tb;fill:#3b3838;fill-opacity:1;fill-rule:nonzero;stroke:none"
           transform="matrix(1,0,0,-1,665.18,121.63)"><tspan
             id="tspan220"
             y="0"
             x="0">E</tspan></text>
</g></g><g
       id="g224"><g
         clip-path="url(#clipPath230)"
         id="g226"><text
           id="text234"
           style="font-variant:normal;font-weight:normal;font-size:48px;font-family:TimesNewRomanPSMT;-inkscape-font-specification:TimesNewRomanPSMT;writing-mode:lr-tb;fill:#3b3838;fill-opacity:1;fill-rule:nonzero;stroke:none"
           transform="matrix(1,0,0,-1,483.98,119.59)"><tspan
             id="tspan232"
             y="0"
             x="0">G</tspan></text>
</g></g><g
       id="g236"><g
         clip-path="url(#clipPath242)"
         id="g238"><text
           id="text246"
           style="font-variant:normal;font-weight:normal;font-size:48px;font-family:TimesNewRomanPSMT;-inkscape-font-specification:TimesNewRomanPSMT;writing-mode:lr-tb;fill:#3b3838;fill-opacity:1;fill-rule:nonzero;stroke:none"
           transform="matrix(1,0,0,-1,714,121.63)"><tspan
             id="tspan244"
             y="0"
             x="0">R</tspan></text>
</g></g><g
       id="g248"><g
         clip-path="url(#clipPath254)"
         id="g250"><text
           id="text258"
           style="font-variant:normal;font-weight:normal;font-size:48px;font-family:TimesNewRomanPSMT;-inkscape-font-specification:TimesNewRomanPSMT;writing-mode:lr-tb;fill:#3b3838;fill-opacity:1;fill-rule:nonzero;stroke:none"
           transform="matrix(1,0,0,-1,764.4,121.63)"><tspan
             id="tspan256"
             y="0"
             x="0">Y</tspan></text>
</g></g><path
       id="path260"
       style="fill:#cc0066;fill-opacity:1;fill-rule:evenodd;stroke:none"
       d="m 548.46,158.04 c 7.55,0 13.76,-6.72 14.5,-15.33 l 0.08,-1.75 v 0 -22.4 l -5.21,6.11 -4.69,-5.49 -4.68,5.49 -4.68,-5.49 -4.69,5.49 -5.21,-6.11 v 22.4 0 l 0.08,1.75 c 0.74,8.61 6.95,15.33 14.5,15.33 z" /><path
       id="path262"
       style="fill:none;stroke:#000000;stroke-width:0.75;stroke-linecap:butt;stroke-linejoin:miter;stroke-miterlimit:8;stroke-dasharray:none;stroke-opacity:1"
       d="m 548.46,158.04 c 7.55,0 13.76,-6.72 14.5,-15.33 l 0.08,-1.75 v 0 -22.4 l -5.21,6.11 -4.69,-5.49 -4.68,5.49 -4.68,-5.49 -4.69,5.49 -5.21,-6.11 v 22.4 0 l 0.08,1.75 c 0.74,8.61 6.95,15.33 14.5,15.33 z" /><path
       id="path264"
       style="fill:#ffffff;fill-opacity:1;fill-rule:evenodd;stroke:none"
       d="m 549,142.08 c 0,2.85 1.99,5.16 4.44,5.16 2.45,0 4.44,-2.31 4.44,-5.16 0,-2.85 -1.99,-5.16 -4.44,-5.16 -2.45,0 -4.44,2.31 -4.44,5.16 z" /><path
       id="path266"
       style="fill:none;stroke:#000000;stroke-width:1;stroke-linecap:butt;stroke-linejoin:miter;stroke-miterlimit:8;stroke-dasharray:none;stroke-opacity:1"
       d="m 549,142.08 c 0,2.85 1.99,5.16 4.44,5.16 2.45,0 4.44,-2.31 4.44,-5.16 0,-2.85 -1.99,-5.16 -4.44,-5.16 -2.45,0 -4.44,2.31 -4.44,5.16 z" /><path
       id="path268"
       style="fill:#000000;fill-opacity:1;fill-rule:evenodd;stroke:none"
       d="m 549.36,142.08 c 0,1.46 1.02,2.64 2.28,2.64 1.26,0 2.28,-1.18 2.28,-2.64 0,-1.46 -1.02,-2.64 -2.28,-2.64 -1.26,0 -2.28,1.18 -2.28,2.64 z" /><path
       id="path270"
       style="fill:none;stroke:#000000;stroke-width:1;stroke-linecap:butt;stroke-linejoin:miter;stroke-miterlimit:8;stroke-dasharray:none;stroke-opacity:1"
       d="m 549.36,142.08 c 0,1.46 1.02,2.64 2.28,2.64 1.26,0 2.28,-1.18 2.28,-2.64 0,-1.46 -1.02,-2.64 -2.28,-2.64 -1.26,0 -2.28,1.18 -2.28,2.64 z" /><path
       id="path272"
       style="fill:#ffffff;fill-opacity:1;fill-rule:evenodd;stroke:none"
       d="m 539.04,142.08 c 0,2.85 1.96,5.16 4.38,5.16 2.42,0 4.38,-2.31 4.38,-5.16 0,-2.85 -1.96,-5.16 -4.38,-5.16 -2.42,0 -4.38,2.31 -4.38,5.16 z" /><path
       id="path274"
       style="fill:none;stroke:#000000;stroke-width:1;stroke-linecap:butt;stroke-linejoin:miter;stroke-miterlimit:8;stroke-dasharray:none;stroke-opacity:1"
       d="m 539.04,142.08 c 0,2.85 1.96,5.16 4.38,5.16 2.42,0 4.38,-2.31 4.38,-5.16 0,-2.85 -1.96,-5.16 -4.38,-5.16 -2.42,0 -4.38,2.31 -4.38,5.16 z" /><path
       id="path276"
       style="fill:#000000;fill-opacity:1;fill-rule:evenodd;stroke:none"
       d="m 539.28,142.08 c 0,1.46 1.02,2.64 2.28,2.64 1.26,0 2.28,-1.18 2.28,-2.64 0,-1.46 -1.02,-2.64 -2.28,-2.64 -1.26,0 -2.28,1.18 -2.28,2.64 z" /><path
       id="path278"
       style="fill:none;stroke:#000000;stroke-width:1;stroke-linecap:butt;stroke-linejoin:miter;stroke-miterlimit:8;stroke-dasharray:none;stroke-opacity:1"
       d="m 539.28,142.08 c 0,1.46 1.02,2.64 2.28,2.64 1.26,0 2.28,-1.18 2.28,-2.64 0,-1.46 -1.02,-2.64 -2.28,-2.64 -1.26,0 -2.28,1.18 -2.28,2.64 z" /><path
       id="path280"
       style="fill:#ffffff;fill-opacity:1;fill-rule:evenodd;stroke:none"
       d="m 458.52,141.96 c 0,0.8 0.64,1.44 1.44,1.44 0.8,0 1.44,-0.64 1.44,-1.44 0,-0.8 -0.64,-1.44 -1.44,-1.44 -0.8,0 -1.44,0.64 -1.44,1.44 z" /><path
       id="path282"
       style="fill:none;stroke:#000000;stroke-width:0.75;stroke-linecap:butt;stroke-linejoin:round;stroke-miterlimit:8;stroke-dasharray:none;stroke-opacity:1"
       d="m 458.52,141.96 c 0,0.8 0.64,1.44 1.44,1.44 0.8,0 1.44,-0.64 1.44,-1.44 0,-0.8 -0.64,-1.44 -1.44,-1.44 -0.8,0 -1.44,0.64 -1.44,1.44 z" /><path
       id="path284"
       style="fill:#ffffff;fill-opacity:1;fill-rule:evenodd;stroke:none"
       d="m 464.16,139.08 c 0,0.8 0.64,1.44 1.44,1.44 0.8,0 1.44,-0.64 1.44,-1.44 0,-0.8 -0.64,-1.44 -1.44,-1.44 -0.8,0 -1.44,0.64 -1.44,1.44 z" /><path
       id="path286"
       style="fill:none;stroke:#000000;stroke-width:0.75;stroke-linecap:butt;stroke-linejoin:round;stroke-miterlimit:8;stroke-dasharray:none;stroke-opacity:1"
       d="m 464.16,139.08 c 0,0.8 0.64,1.44 1.44,1.44 0.8,0 1.44,-0.64 1.44,-1.44 0,-0.8 -0.64,-1.44 -1.44,-1.44 -0.8,0 -1.44,0.64 -1.44,1.44 z" /><path
       id="path288"
       style="fill:#ffffff;fill-opacity:1;fill-rule:evenodd;stroke:none"
       d="m 458.52,130.62 c 0,0.76 0.64,1.38 1.44,1.38 0.8,0 1.44,-0.62 1.44,-1.38 0,-0.76 -0.64,-1.38 -1.44,-1.38 -0.8,0 -1.44,0.62 -1.44,1.38 z" /><path
       id="path290"
       style="fill:none;stroke:#000000;stroke-width:0.75;stroke-linecap:butt;stroke-linejoin:round;stroke-miterlimit:8;stroke-dasharray:none;stroke-opacity:1"
       d="m 458.52,130.62 c 0,0.76 0.64,1.38 1.44,1.38 0.8,0 1.44,-0.62 1.44,-1.38 0,-0.76 -0.64,-1.38 -1.44,-1.38 -0.8,0 -1.44,0.62 -1.44,1.38 z" /><path
       id="path292"
       style="fill:#ffffff;fill-opacity:1;fill-rule:evenodd;stroke:none"
       d="m 464.16,133.44 c 0,0.8 0.64,1.44 1.44,1.44 0.8,0 1.44,-0.64 1.44,-1.44 0,-0.8 -0.64,-1.44 -1.44,-1.44 -0.8,0 -1.44,0.64 -1.44,1.44 z" /><path
       id="path294"
       style="fill:none;stroke:#000000;stroke-width:0.75;stroke-linecap:butt;stroke-linejoin:round;stroke-miterlimit:8;stroke-dasharray:none;stroke-opacity:1"
       d="m 464.16,133.44 c 0,0.8 0.64,1.44 1.44,1.44 0.8,0 1.44,-0.64 1.44,-1.44 0,-0.8 -0.64,-1.44 -1.44,-1.44 -0.8,0 -1.44,0.64 -1.44,1.44 z" /><path
       id="path296"
       style="fill:#ffffff;fill-opacity:1;fill-rule:evenodd;stroke:none"
       d="m 452.88,139.14 c 0,0.76 0.64,1.38 1.44,1.38 0.8,0 1.44,-0.62 1.44,-1.38 0,-0.76 -0.64,-1.38 -1.44,-1.38 -0.8,0 -1.44,0.62 -1.44,1.38 z" /><path
       id="path298"
       style="fill:none;stroke:#000000;stroke-width:0.75;stroke-linecap:butt;stroke-linejoin:round;stroke-miterlimit:8;stroke-dasharray:none;stroke-opacity:1"
       d="m 452.88,139.14 c 0,0.76 0.64,1.38 1.44,1.38 0.8,0 1.44,-0.62 1.44,-1.38 0,-0.76 -0.64,-1.38 -1.44,-1.38 -0.8,0 -1.44,0.62 -1.44,1.38 z" /><path
       id="path300"
       style="fill:none;stroke:#767171;stroke-width:0.75;stroke-linecap:butt;stroke-linejoin:miter;stroke-miterlimit:8;stroke-dasharray:none;stroke-opacity:1"
       d="m 459.96,140.52 v -2.88" /><path
       id="path302"
       style="fill:#ffffff;fill-opacity:1;fill-rule:evenodd;stroke:none"
       d="m 458.52,136.26 c 0,0.76 0.64,1.38 1.44,1.38 0.8,0 1.44,-0.62 1.44,-1.38 0,-0.76 -0.64,-1.38 -1.44,-1.38 -0.8,0 -1.44,0.62 -1.44,1.38 z" /><path
       id="path304"
       style="fill:none;stroke:#000000;stroke-width:0.75;stroke-linecap:butt;stroke-linejoin:round;stroke-miterlimit:8;stroke-dasharray:none;stroke-opacity:1"
       d="m 458.52,136.26 c 0,0.76 0.64,1.38 1.44,1.38 0.8,0 1.44,-0.62 1.44,-1.38 0,-0.76 -0.64,-1.38 -1.44,-1.38 -0.8,0 -1.44,0.62 -1.44,1.38 z" /><path
       id="path306"
       style="fill:none;stroke:#767171;stroke-width:0.75;stroke-linecap:butt;stroke-linejoin:miter;stroke-miterlimit:8;stroke-dasharray:none;stroke-opacity:1"
       d="m 459.97,134.88 -0.01,-2.84" /><path
       id="path308"
       style="fill:none;stroke:#767171;stroke-width:0.75;stroke-linecap:butt;stroke-linejoin:miter;stroke-miterlimit:8;stroke-dasharray:none;stroke-opacity:1"
       d="m 455.76,133.4 3.28,1.84" /><path
       id="path310"
       style="fill:none;stroke:#767171;stroke-width:0.75;stroke-linecap:butt;stroke-linejoin:miter;stroke-miterlimit:8;stroke-dasharray:none;stroke-opacity:1"
       d="m 455.28,138.12 3.27,-1.86" /><path
       id="path312"
       style="fill:none;stroke:#767171;stroke-width:0.75;stroke-linecap:butt;stroke-linejoin:miter;stroke-miterlimit:8;stroke-dasharray:none;stroke-opacity:1"
       d="m 461.4,136.31 3.23,1.81" /><path
       id="path314"
       style="fill:none;stroke:#767171;stroke-width:0.75;stroke-linecap:butt;stroke-linejoin:miter;stroke-miterlimit:8;stroke-dasharray:none;stroke-opacity:1"
       d="m 461.04,135.24 3.22,-1.84" /><path
       id="path316"
       style="fill:none;stroke:#767171;stroke-width:0.75;stroke-linecap:butt;stroke-linejoin:miter;stroke-miterlimit:8;stroke-dasharray:none;stroke-opacity:1"
       d="m 465.6,134.82 0.01,2.82" /><path
       id="path318"
       style="fill:none;stroke:#767171;stroke-width:0.75;stroke-linecap:butt;stroke-linejoin:miter;stroke-miterlimit:8;stroke-dasharray:none;stroke-opacity:1"
       d="m 461.4,130.66 3.23,1.82" /><path
       id="path320"
       style="fill:none;stroke:#767171;stroke-width:0.75;stroke-linecap:butt;stroke-linejoin:miter;stroke-miterlimit:8;stroke-dasharray:none;stroke-opacity:1"
       d="m 464.63,140.06 -3.23,1.9" /><path
       id="path322"
       style="fill:#ffffff;fill-opacity:1;fill-rule:evenodd;stroke:none"
       d="m 452.88,133.44 c 0,0.8 0.64,1.44 1.44,1.44 0.8,0 1.44,-0.64 1.44,-1.44 0,-0.8 -0.64,-1.44 -1.44,-1.44 -0.8,0 -1.44,0.64 -1.44,1.44 z" /><path
       id="path324"
       style="fill:none;stroke:#000000;stroke-width:0.75;stroke-linecap:butt;stroke-linejoin:round;stroke-miterlimit:8;stroke-dasharray:none;stroke-opacity:1"
       d="m 452.88,133.44 c 0,0.8 0.64,1.44 1.44,1.44 0.8,0 1.44,-0.64 1.44,-1.44 0,-0.8 -0.64,-1.44 -1.44,-1.44 -0.8,0 -1.44,0.64 -1.44,1.44 z" /><path
       id="path326"
       style="fill:none;stroke:#767171;stroke-width:0.75;stroke-linecap:butt;stroke-linejoin:miter;stroke-miterlimit:8;stroke-dasharray:none;stroke-opacity:1"
       d="m 455.28,140.11 3.27,1.85" /><path
       id="path328"
       style="fill:none;stroke:#767171;stroke-width:0.75;stroke-linecap:butt;stroke-linejoin:miter;stroke-miterlimit:8;stroke-dasharray:none;stroke-opacity:1"
       d="m 454.34,137.76 -0.02,-2.88" /><path
       id="path330"
       style="fill:none;stroke:#767171;stroke-width:0.75;stroke-linecap:butt;stroke-linejoin:miter;stroke-miterlimit:8;stroke-dasharray:none;stroke-opacity:1"
       d="m 455.28,132.48 3.27,-1.82" /><g
       id="g332"><path
         id="path346"
         style="fill:url(#radialGradient344);fill-opacity:1;fill-rule:evenodd;stroke:none"
         d="m 732.3,294.9 c 0,9.34 7.6,16.92 16.98,16.92 9.38,0 16.98,-7.58 16.98,-16.92 0,-9.34 -7.6,-16.92 -16.98,-16.92 -9.38,0 -16.98,7.58 -16.98,16.92 z" /></g><path
       id="path348"
       style="fill:none;stroke:#767171;stroke-width:2.25;stroke-linecap:butt;stroke-linejoin:round;stroke-miterlimit:8;stroke-dasharray:none;stroke-opacity:1"
       d="m 732.3,294.9 c 0,9.34 7.6,16.92 16.98,16.92 9.38,0 16.98,-7.58 16.98,-16.92 0,-9.34 -7.6,-16.92 -16.98,-16.92 -9.38,0 -16.98,7.58 -16.98,16.92 z" /><g
       id="g350"><path
         id="path364"
         style="fill:url(#linearGradient362);fill-opacity:1;fill-rule:evenodd;stroke:none"
         d="m 664.38,193.38 c 0,9.34 7.6,16.92 16.98,16.92 9.38,0 16.98,-7.58 16.98,-16.92 0,-9.34 -7.6,-16.92 -16.98,-16.92 -9.38,0 -16.98,7.58 -16.98,16.92 z" /></g><path
       id="path366"
       style="fill:none;stroke:#767171;stroke-width:2.25;stroke-linecap:butt;stroke-linejoin:round;stroke-miterlimit:8;stroke-dasharray:none;stroke-opacity:1"
       d="m 664.38,193.38 c 0,9.34 7.6,16.92 16.98,16.92 9.38,0 16.98,-7.58 16.98,-16.92 0,-9.34 -7.6,-16.92 -16.98,-16.92 -9.38,0 -16.98,7.58 -16.98,16.92 z" /><g
       id="g368"><path
         id="path394"
         style="fill:url(#linearGradient392);fill-opacity:1;fill-rule:evenodd;stroke:none"
         d="m 732.18,227.22 c 0,9.34 7.6,16.92 16.98,16.92 9.38,0 16.98,-7.58 16.98,-16.92 0,-9.34 -7.6,-16.92 -16.98,-16.92 -9.38,0 -16.98,7.58 -16.98,16.92 z" /></g><path
       id="path396"
       style="fill:none;stroke:#767171;stroke-width:2.25;stroke-linecap:butt;stroke-linejoin:round;stroke-miterlimit:8;stroke-dasharray:none;stroke-opacity:1"
       d="m 732.18,227.22 c 0,9.34 7.6,16.92 16.98,16.92 9.38,0 16.98,-7.58 16.98,-16.92 0,-9.34 -7.6,-16.92 -16.98,-16.92 -9.38,0 -16.98,7.58 -16.98,16.92 z" /><g
       id="g398"><path
         id="path400"
         style="fill:none;stroke:#767171;stroke-width:2.25;stroke-linecap:butt;stroke-linejoin:miter;stroke-miterlimit:8;stroke-dasharray:6.75, 2.25;stroke-dashoffset:0;stroke-opacity:1"
         d="m 681.3,312.42 0.16,-34.19" /></g><g
       id="g402"><path
         id="path428"
         style="fill:url(#linearGradient426);fill-opacity:1;fill-rule:evenodd;stroke:none"
         d="m 664.5,261.3 c 0,9.34 7.6,16.92 16.98,16.92 9.38,0 16.98,-7.58 16.98,-16.92 0,-9.34 -7.6,-16.92 -16.98,-16.92 -9.38,0 -16.98,7.58 -16.98,16.92 z" /></g><path
       id="path430"
       style="fill:none;stroke:#767171;stroke-width:2.25;stroke-linecap:butt;stroke-linejoin:round;stroke-miterlimit:8;stroke-dasharray:none;stroke-opacity:1"
       d="m 664.5,261.3 c 0,9.34 7.6,16.92 16.98,16.92 9.38,0 16.98,-7.58 16.98,-16.92 0,-9.34 -7.6,-16.92 -16.98,-16.92 -9.38,0 -16.98,7.58 -16.98,16.92 z" /><path
       id="path432"
       style="fill:none;stroke:#767171;stroke-width:2.25;stroke-linecap:butt;stroke-linejoin:miter;stroke-miterlimit:8;stroke-dasharray:none;stroke-opacity:1"
       d="M 681.46,244.38 681.3,210.32" /><g
       id="g434"><path
         id="path436"
         style="fill:none;stroke:#767171;stroke-width:2.25;stroke-linecap:butt;stroke-linejoin:miter;stroke-miterlimit:8;stroke-dasharray:6.75, 2.25;stroke-dashoffset:0;stroke-opacity:1"
         d="m 630.06,227.2 39.43,22.1" /></g><path
       id="path438"
       style="fill:none;stroke:#767171;stroke-width:2.25;stroke-linecap:butt;stroke-linejoin:miter;stroke-miterlimit:8;stroke-dasharray:none;stroke-opacity:1"
       d="M 625.62,283.26 664.44,261.3" /><path
       id="path440"
       style="fill:none;stroke:#767171;stroke-width:2.25;stroke-linecap:butt;stroke-linejoin:miter;stroke-miterlimit:8;stroke-dasharray:none;stroke-opacity:1"
       d="m 698.46,261.23 38.79,21.67" /><g
       id="g442"><path
         id="path444"
         style="fill:none;stroke:#767171;stroke-width:2.25;stroke-linecap:butt;stroke-linejoin:miter;stroke-miterlimit:8;stroke-dasharray:6.75, 2.25;stroke-dashoffset:0;stroke-opacity:1"
         d="m 732.2,227.2 -38.66,22.1" /></g><path
       id="path446"
       style="fill:none;stroke:#767171;stroke-width:2.25;stroke-linecap:butt;stroke-linejoin:miter;stroke-miterlimit:8;stroke-dasharray:none;stroke-opacity:1"
       d="m 749.22,244.12 0.13,33.86" /><path
       id="path448"
       style="fill:none;stroke:#767171;stroke-width:2.25;stroke-linecap:butt;stroke-linejoin:miter;stroke-miterlimit:8;stroke-dasharray:none;stroke-opacity:1"
       d="m 698.34,193.35 38.82,21.87" /><path
       id="path450"
       style="fill:none;stroke:#767171;stroke-width:2.25;stroke-linecap:butt;stroke-linejoin:miter;stroke-miterlimit:8;stroke-dasharray:none;stroke-opacity:1"
       d="m 737.29,306.91 -38.95,22.43" /><g
       id="g452"><path
         id="path470"
         style="fill:url(#linearGradient468);fill-opacity:1;fill-rule:evenodd;stroke:none"
         d="m 596.1,227.22 c 0,9.34 7.6,16.92 16.98,16.92 9.38,0 16.98,-7.58 16.98,-16.92 0,-9.34 -7.6,-16.92 -16.98,-16.92 -9.38,0 -16.98,7.58 -16.98,16.92 z" /></g><path
       id="path472"
       style="fill:none;stroke:#767171;stroke-width:2.25;stroke-linecap:butt;stroke-linejoin:round;stroke-miterlimit:8;stroke-dasharray:none;stroke-opacity:1"
       d="m 596.1,227.22 c 0,9.34 7.6,16.92 16.98,16.92 9.38,0 16.98,-7.58 16.98,-16.92 0,-9.34 -7.6,-16.92 -16.98,-16.92 -9.38,0 -16.98,7.58 -16.98,16.92 z" /><path
       id="path474"
       style="fill:none;stroke:#767171;stroke-width:2.25;stroke-linecap:butt;stroke-linejoin:miter;stroke-miterlimit:8;stroke-dasharray:none;stroke-opacity:1"
       d="m 625.62,307.21 38.66,22.13" /><path
       id="path476"
       style="fill:none;stroke:#767171;stroke-width:2.25;stroke-linecap:butt;stroke-linejoin:miter;stroke-miterlimit:8;stroke-dasharray:none;stroke-opacity:1"
       d="m 613.63,278.34 -0.61,-34.15" /><path
       id="path478"
       style="fill:none;stroke:#767171;stroke-width:2.25;stroke-linecap:butt;stroke-linejoin:miter;stroke-miterlimit:8;stroke-dasharray:none;stroke-opacity:1"
       d="m 625.02,215.22 39.27,-21.87" /><g
       id="g480"><path
         id="path506"
         style="fill:url(#linearGradient504);fill-opacity:1;fill-rule:evenodd;stroke:none"
         d="m 664.38,329.34 c 0,9.34 7.6,16.92 16.98,16.92 9.38,0 16.98,-7.58 16.98,-16.92 0,-9.34 -7.6,-16.92 -16.98,-16.92 -9.38,0 -16.98,7.58 -16.98,16.92 z" /></g><path
       id="path508"
       style="fill:none;stroke:#767171;stroke-width:2.25;stroke-linecap:butt;stroke-linejoin:round;stroke-miterlimit:8;stroke-dasharray:none;stroke-opacity:1"
       d="m 664.38,329.34 c 0,9.34 7.6,16.92 16.98,16.92 9.38,0 16.98,-7.58 16.98,-16.92 0,-9.34 -7.6,-16.92 -16.98,-16.92 -9.38,0 -16.98,7.58 -16.98,16.92 z" /><g
       id="g510"><path
         id="path536"
         style="fill:url(#linearGradient534);fill-opacity:1;fill-rule:evenodd;stroke:none"
         d="m 596.7,295.2 c 0,9.31 7.6,16.86 16.98,16.86 9.38,0 16.98,-7.55 16.98,-16.86 0,-9.31 -7.6,-16.86 -16.98,-16.86 -9.38,0 -16.98,7.55 -16.98,16.86 z" /></g><path
       id="path538"
       style="fill:none;stroke:#767171;stroke-width:2.25;stroke-linecap:butt;stroke-linejoin:round;stroke-miterlimit:8;stroke-dasharray:none;stroke-opacity:1"
       d="m 596.7,295.2 c 0,9.31 7.6,16.86 16.98,16.86 9.38,0 16.98,-7.55 16.98,-16.86 0,-9.31 -7.6,-16.86 -16.98,-16.86 -9.38,0 -16.98,7.55 -16.98,16.86 z" /><g
       id="g540"><path
         id="path542"
         style="fill:none;stroke:#767171;stroke-width:2.25;stroke-linecap:butt;stroke-linejoin:miter;stroke-miterlimit:8;stroke-dasharray:18, 6.75, 2.25, 6.75;stroke-dashoffset:0;stroke-opacity:1"
         d="M 217.5,164.1 H 813.59" /></g></g></svg>