<?xml version="1.0" encoding="UTF-8" standalone="no"?>
<svg
   xmlns:dc="http://purl.org/dc/elements/1.1/"
   xmlns:cc="http://creativecommons.org/ns#"
   xmlns:rdf="http://www.w3.org/1999/02/22-rdf-syntax-ns#"
   xmlns:svg="http://www.w3.org/2000/svg"
   xmlns="http://www.w3.org/2000/svg"
   viewBox="0 0 795.92932 340.43173"
   height="340.43173"
   width="795.92932"
   xml:space="preserve"
   id="svg2"
   version="1.1"><metadata
     id="metadata8"><rdf:RDF><cc:Work
         rdf:about=""><dc:format>image/svg+xml</dc:format><dc:type
           rdf:resource="http://purl.org/dc/dcmitype/StillImage" /></cc:Work></rdf:RDF></metadata><defs
     id="defs6"><clipPath
       id="clipPath14"
       clipPathUnits="userSpaceOnUse"><path
         id="path12"
         d="M 0,0 H 960 V 540 H 0 Z" /></clipPath><clipPath
       id="clipPath22"
       clipPathUnits="userSpaceOnUse"><path
         style="clip-rule:evenodd"
         id="path20"
         d="M 0,1.2207e-4 H 960 V 540.00012 H 0 Z" /></clipPath><linearGradient
       id="linearGradient72"
       spreadMethod="pad"
       gradientUnits="userSpaceOnUse"
       y2="278.48999"
       x2="661.28998"
       y1="217.17999"
       x1="734.35999"><stop
         id="stop50"
         offset="0"
         style="stop-opacity:1;stop-color:#fad8c1" /><stop
         id="stop52"
         offset="0.02"
         style="stop-opacity:1;stop-color:#fad8c1" /><stop
         id="stop54"
         offset="0.075"
         style="stop-opacity:1;stop-color:#f7c4a2" /><stop
         id="stop56"
         offset="0.24"
         style="stop-opacity:1;stop-color:#f19c99" /><stop
         id="stop58"
         offset="0.4"
         style="stop-opacity:1;stop-color:#cc0066" /><stop
         id="stop60"
         offset="0.5"
         style="stop-opacity:1;stop-color:#cc0066" /><stop
         id="stop62"
         offset="0.6"
         style="stop-opacity:1;stop-color:#cc0066" /><stop
         id="stop64"
         offset="0.76"
         style="stop-opacity:1;stop-color:#f19c99" /><stop
         id="stop66"
         offset="0.925"
         style="stop-opacity:1;stop-color:#f7c4a2" /><stop
         id="stop68"
         offset="0.98"
         style="stop-opacity:1;stop-color:#fad8c1" /><stop
         id="stop70"
         offset="1"
         style="stop-opacity:1;stop-color:#fad8c1" /></linearGradient><clipPath
       id="clipPath120"
       clipPathUnits="userSpaceOnUse"><path
         style="clip-rule:evenodd"
         id="path118"
         d="M -2.47e-7,540 H 960 V 1.8311e-4 L -1.2928e-5,1.2207e-4" /></clipPath><clipPath
       id="clipPath130"
       clipPathUnits="userSpaceOnUse"><path
         style="clip-rule:evenodd"
         id="path128"
         d="M 1.4305e-5,0 H 960.00001 V 540 H 1.4305e-5 Z" /></clipPath><clipPath
       id="clipPath142"
       clipPathUnits="userSpaceOnUse"><path
         style="clip-rule:evenodd"
         id="path140"
         d="M 1.4305e-5,0 H 960.00001 V 540 H 1.4305e-5 Z" /></clipPath><clipPath
       id="clipPath154"
       clipPathUnits="userSpaceOnUse"><path
         style="clip-rule:evenodd"
         id="path152"
         d="M 1.4305e-5,0 H 960.00001 V 540 H 1.4305e-5 Z" /></clipPath><clipPath
       id="clipPath166"
       clipPathUnits="userSpaceOnUse"><path
         style="clip-rule:evenodd"
         id="path164"
         d="M 1.4305e-5,0 H 960.00001 V 540 H 1.4305e-5 Z" /></clipPath><clipPath
       id="clipPath198"
       clipPathUnits="userSpaceOnUse"><path
         style="clip-rule:evenodd"
         id="path196"
         d="M -3.1398e-5,540 H 960 V 1.8311e-4 L -4.7932e-5,1.2207e-4" /></clipPath><clipPath
       id="clipPath208"
       clipPathUnits="userSpaceOnUse"><path
         style="clip-rule:evenodd"
         id="path206"
         d="M -3.7107e-5,540 H 960 V 1.8311e-4 L -5.3641e-5,1.2207e-4" /></clipPath><clipPath
       id="clipPath218"
       clipPathUnits="userSpaceOnUse"><path
         style="clip-rule:evenodd"
         id="path216"
         d="M -3.1135e-5,540 H 960 V 1.2207e-4 L -7.8054e-5,6.1035e-5" /></clipPath><clipPath
       id="clipPath228"
       clipPathUnits="userSpaceOnUse"><path
         style="clip-rule:evenodd"
         id="path226"
         d="M -6.48e-7,540 H 960 V 1.2207e-4 L -3.1974e-5,6.1035e-5" /></clipPath><clipPath
       id="clipPath242"
       clipPathUnits="userSpaceOnUse"><path
         style="clip-rule:evenodd"
         id="path240"
         d="M 1.4305e-5,0 H 960.00001 V 540 H 1.4305e-5 Z" /></clipPath><clipPath
       id="clipPath254"
       clipPathUnits="userSpaceOnUse"><path
         style="clip-rule:evenodd"
         id="path252"
         d="M 1.4305e-5,0 H 960.00001 V 540 H 1.4305e-5 Z" /></clipPath><clipPath
       id="clipPath266"
       clipPathUnits="userSpaceOnUse"><path
         style="clip-rule:evenodd"
         id="path264"
         d="M 1.4305e-5,0 H 960.00001 V 540 H 1.4305e-5 Z" /></clipPath><clipPath
       id="clipPath278"
       clipPathUnits="userSpaceOnUse"><path
         style="clip-rule:evenodd"
         id="path276"
         d="M 1.4305e-5,0 H 960.00001 V 540 H 1.4305e-5 Z" /></clipPath><clipPath
       id="clipPath290"
       clipPathUnits="userSpaceOnUse"><path
         style="clip-rule:evenodd"
         id="path288"
         d="M 1.4305e-5,0 H 960.00001 V 540 H 1.4305e-5 Z" /></clipPath><clipPath
       id="clipPath302"
       clipPathUnits="userSpaceOnUse"><path
         style="clip-rule:evenodd"
         id="path300"
         d="M 1.4305e-5,0 H 960.00001 V 540 H 1.4305e-5 Z" /></clipPath><clipPath
       id="clipPath338"
       clipPathUnits="userSpaceOnUse"><path
         style="clip-rule:evenodd"
         id="path336"
         d="M -6.6573e-5,540 H 960 V 1.2207e-4 L -1.1349e-4,6.1035e-5" /></clipPath><clipPath
       id="clipPath348"
       clipPathUnits="userSpaceOnUse"><path
         style="clip-rule:evenodd"
         id="path346"
         d="M -1.4006e-5,540 H 960 V 1.2207e-4 L -6.0925e-5,6.1035e-5" /></clipPath></defs><g
     clip-path="url(#clipPath14)"
     transform="matrix(1.3333333,0,0,-1.3333333,-288.00533,470.804)"
     id="g10"><g
       id="g16"><g
         clip-path="url(#clipPath22)"
         id="g18"><path
           id="path24"
           style="fill:#ffffff;fill-opacity:1;fill-rule:evenodd;stroke:none"
           d="M 0,6.1035e-5 H 960 V 540.00006 H 0 Z" /></g></g><path
       id="path26"
       style="fill:#f19c99;fill-opacity:1;fill-rule:evenodd;stroke:none"
       d="m 662.58,331.5 c 0,9.34 7.6,16.92 16.98,16.92 9.38,0 16.98,-7.58 16.98,-16.92 0,-9.34 -7.6,-16.92 -16.98,-16.92 -9.38,0 -16.98,7.58 -16.98,16.92 z" /><path
       id="path28"
       style="fill:none;stroke:#000000;stroke-width:2.25;stroke-linecap:butt;stroke-linejoin:round;stroke-miterlimit:10;stroke-dasharray:none;stroke-opacity:1"
       d="m 662.58,331.5 c 0,9.34 7.6,16.92 16.98,16.92 9.38,0 16.98,-7.58 16.98,-16.92 0,-9.34 -7.6,-16.92 -16.98,-16.92 -9.38,0 -16.98,7.58 -16.98,16.92 z" /><path
       id="path30"
       style="fill:#f19c99;fill-opacity:1;fill-rule:evenodd;stroke:none"
       d="m 730.38,296.82 c 0,9.34 7.6,16.92 16.98,16.92 9.38,0 16.98,-7.58 16.98,-16.92 0,-9.34 -7.6,-16.92 -16.98,-16.92 -9.38,0 -16.98,7.58 -16.98,16.92 z" /><path
       id="path32"
       style="fill:none;stroke:#000000;stroke-width:2.25;stroke-linecap:butt;stroke-linejoin:round;stroke-miterlimit:10;stroke-dasharray:none;stroke-opacity:1"
       d="m 730.38,296.82 c 0,9.34 7.6,16.92 16.98,16.92 9.38,0 16.98,-7.58 16.98,-16.92 0,-9.34 -7.6,-16.92 -16.98,-16.92 -9.38,0 -16.98,7.58 -16.98,16.92 z" /><path
       id="path34"
       style="fill:#cc0066;fill-opacity:1;fill-rule:evenodd;stroke:none"
       d="m 662.34,195.3 c 0,9.34 7.63,16.92 17.04,16.92 9.41,0 17.04,-7.58 17.04,-16.92 0,-9.34 -7.63,-16.92 -17.04,-16.92 -9.41,0 -17.04,7.58 -17.04,16.92 z" /><path
       id="path36"
       style="fill:none;stroke:#000000;stroke-width:2.25;stroke-linecap:butt;stroke-linejoin:round;stroke-miterlimit:10;stroke-dasharray:none;stroke-opacity:1"
       d="m 662.34,195.3 c 0,9.34 7.63,16.92 17.04,16.92 9.41,0 17.04,-7.58 17.04,-16.92 0,-9.34 -7.63,-16.92 -17.04,-16.92 -9.41,0 -17.04,7.58 -17.04,16.92 z" /><path
       id="path38"
       style="fill:#cc0066;fill-opacity:1;fill-rule:evenodd;stroke:none"
       d="m 730.26,229.14 c 0,9.34 7.6,16.92 16.98,16.92 9.38,0 16.98,-7.58 16.98,-16.92 0,-9.34 -7.6,-16.92 -16.98,-16.92 -9.38,0 -16.98,7.58 -16.98,16.92 z" /><path
       id="path40"
       style="fill:none;stroke:#000000;stroke-width:2.25;stroke-linecap:butt;stroke-linejoin:round;stroke-miterlimit:10;stroke-dasharray:none;stroke-opacity:1"
       d="m 730.26,229.14 c 0,9.34 7.6,16.92 16.98,16.92 9.38,0 16.98,-7.58 16.98,-16.92 0,-9.34 -7.6,-16.92 -16.98,-16.92 -9.38,0 -16.98,7.58 -16.98,16.92 z" /><path
       id="path42"
       style="fill:#f19c99;fill-opacity:1;fill-rule:evenodd;stroke:none"
       d="m 594.3,297.42 c 0,9.34 7.6,16.92 16.98,16.92 9.38,0 16.98,-7.58 16.98,-16.92 0,-9.34 -7.6,-16.92 -16.98,-16.92 -9.38,0 -16.98,7.58 -16.98,16.92 z" /><path
       id="path44"
       style="fill:none;stroke:#000000;stroke-width:2.25;stroke-linecap:butt;stroke-linejoin:round;stroke-miterlimit:10;stroke-dasharray:none;stroke-opacity:1"
       d="m 594.3,297.42 c 0,9.34 7.6,16.92 16.98,16.92 9.38,0 16.98,-7.58 16.98,-16.92 0,-9.34 -7.6,-16.92 -16.98,-16.92 -9.38,0 -16.98,7.58 -16.98,16.92 z" /><path
       id="path46"
       style="fill:none;stroke:#767171;stroke-width:2.25;stroke-linecap:butt;stroke-linejoin:miter;stroke-miterlimit:8;stroke-dasharray:none;stroke-opacity:1"
       d="M 679.5,314.58 V 280.03" /><g
       id="g48"><path
         id="path74"
         style="fill:url(#linearGradient72);fill-opacity:1;fill-rule:evenodd;stroke:none"
         d="m 662.58,263.16 c 0,9.31 7.6,16.86 16.98,16.86 9.38,0 16.98,-7.55 16.98,-16.86 0,-9.31 -7.6,-16.86 -16.98,-16.86 -9.38,0 -16.98,7.55 -16.98,16.86 z" /></g><path
       id="path76"
       style="fill:none;stroke:#000000;stroke-width:2.25;stroke-linecap:butt;stroke-linejoin:round;stroke-miterlimit:8;stroke-dasharray:none;stroke-opacity:1"
       d="m 662.58,263.16 c 0,9.31 7.6,16.86 16.98,16.86 9.38,0 16.98,-7.55 16.98,-16.86 0,-9.31 -7.6,-16.86 -16.98,-16.86 -9.38,0 -16.98,7.55 -16.98,16.86 z" /><path
       id="path78"
       style="fill:none;stroke:#767171;stroke-width:2.25;stroke-linecap:butt;stroke-linejoin:miter;stroke-miterlimit:8;stroke-dasharray:none;stroke-opacity:1"
       d="m 679.54,246.3 -0.16,-34.06" /><path
       id="path80"
       style="fill:none;stroke:#767171;stroke-width:2.25;stroke-linecap:butt;stroke-linejoin:miter;stroke-miterlimit:8;stroke-dasharray:none;stroke-opacity:1"
       d="m 628.14,226.53 39.37,24.69" /><path
       id="path82"
       style="fill:none;stroke:#767171;stroke-width:2.25;stroke-linecap:butt;stroke-linejoin:miter;stroke-miterlimit:8;stroke-dasharray:none;stroke-opacity:1"
       d="m 623.34,285.42 39.24,-22.31" /><path
       id="path84"
       style="fill:none;stroke:#767171;stroke-width:2.25;stroke-linecap:butt;stroke-linejoin:miter;stroke-miterlimit:8;stroke-dasharray:none;stroke-opacity:1"
       d="m 696.54,263.15 38.79,21.67" /><path
       id="path86"
       style="fill:none;stroke:#767171;stroke-width:2.25;stroke-linecap:butt;stroke-linejoin:miter;stroke-miterlimit:8;stroke-dasharray:none;stroke-opacity:1"
       d="m 691.62,251.22 38.66,-22.1" /><path
       id="path88"
       style="fill:none;stroke:#767171;stroke-width:2.25;stroke-linecap:butt;stroke-linejoin:miter;stroke-miterlimit:8;stroke-dasharray:none;stroke-opacity:1"
       d="m 747.18,246.04 0.13,33.86" /><path
       id="path90"
       style="fill:none;stroke:#767171;stroke-width:2.25;stroke-linecap:butt;stroke-linejoin:miter;stroke-miterlimit:8;stroke-dasharray:none;stroke-opacity:1"
       d="m 696.42,195.27 38.82,21.87" /><path
       id="path92"
       style="fill:none;stroke:#767171;stroke-width:2.25;stroke-linecap:butt;stroke-linejoin:miter;stroke-miterlimit:8;stroke-dasharray:none;stroke-opacity:1"
       d="m 552.06,268.14 42.45,-37.36" /><path
       id="path94"
       style="fill:none;stroke:#767171;stroke-width:2.25;stroke-linecap:butt;stroke-linejoin:miter;stroke-miterlimit:8;stroke-dasharray:none;stroke-opacity:1"
       d="M 735.33,308.71 696.54,331.5" /><g
       id="g96"><path
         id="path98"
         style="fill:none;stroke:#767171;stroke-width:2.25;stroke-linecap:butt;stroke-linejoin:miter;stroke-miterlimit:8;stroke-dasharray:18, 6.75, 2.25, 6.75;stroke-dashoffset:0;stroke-opacity:1"
         d="M 216.78,103.14 H 812.87" /></g><path
       id="path100"
       style="fill:#f19c99;fill-opacity:1;fill-rule:evenodd;stroke:none"
       d="m 379.32,269.88 c 0,8.62 5.96,15.6 13.32,15.6 7.36,0 13.32,-6.98 13.32,-15.6 0,-8.62 -5.96,-15.6 -13.32,-15.6 -7.36,0 -13.32,6.98 -13.32,15.6 z" /><path
       id="path102"
       style="fill:none;stroke:#000000;stroke-width:2.25;stroke-linecap:butt;stroke-linejoin:round;stroke-miterlimit:8;stroke-dasharray:none;stroke-opacity:1"
       d="m 371.94,270.3 c 0,9.34 7.63,16.92 17.04,16.92 9.41,0 17.04,-7.58 17.04,-16.92 0,-9.34 -7.63,-16.92 -17.04,-16.92 -9.41,0 -17.04,7.58 -17.04,16.92 z" /><path
       id="path104"
       style="fill:#f19c99;fill-opacity:1;fill-rule:evenodd;stroke:none"
       d="m 285.93,313.62 c 13.86,0 26.41,-5.62 35.49,-14.71 v 0 l -35.49,-35.51 35.49,-35.51 -7.43,-6.13 c -8.01,-5.42 -17.67,-8.58 -28.06,-8.58 -27.72,0 -50.19,22.48 -50.19,50.22 0,27.74 22.47,50.22 50.19,50.22 z" /><path
       id="path106"
       style="fill:none;stroke:#000000;stroke-width:2.25;stroke-linecap:butt;stroke-linejoin:miter;stroke-miterlimit:8;stroke-dasharray:none;stroke-opacity:1"
       d="m 285.93,313.62 c 13.86,0 26.41,-5.62 35.49,-14.71 v 0 l -35.49,-35.51 35.49,-35.51 -7.43,-6.13 c -8.01,-5.42 -17.67,-8.58 -28.06,-8.58 -27.72,0 -50.19,22.48 -50.19,50.22 0,27.74 22.47,50.22 50.19,50.22 z" /><path
       id="path108"
       style="fill:#ffffff;fill-opacity:1;fill-rule:evenodd;stroke:none"
       d="m 270.36,290.58 c 0,8.38 6.8,15.18 15.18,15.18 8.38,0 15.18,-6.8 15.18,-15.18 0,-8.38 -6.8,-15.18 -15.18,-15.18 -8.38,0 -15.18,6.8 -15.18,15.18 z" /><path
       id="path110"
       style="fill:#000000;fill-opacity:1;fill-rule:evenodd;stroke:none"
       d="m 284.16,290.58 c 0,4.27 3.47,7.74 7.74,7.74 4.27,0 7.74,-3.47 7.74,-7.74 0,-4.27 -3.47,-7.74 -7.74,-7.74 -4.27,0 -7.74,3.47 -7.74,7.74 z" /><path
       id="path112"
       style="fill:#ffffff;fill-opacity:1;fill-rule:evenodd;stroke:none"
       d="m 269.4,261.6 c 0,2.92 2.34,5.28 5.22,5.28 2.88,0 5.22,-2.36 5.22,-5.28 0,-2.92 -2.34,-5.28 -5.22,-5.28 -2.88,0 -5.22,2.36 -5.22,5.28 z" /><g
       id="g114"><g
         clip-path="url(#clipPath120)"
         id="g116"><path
           id="path122"
           style="fill:#ffffff;fill-opacity:1;fill-rule:evenodd;stroke:none"
           d="m 265.25,256.95 c 0.44,0.52 1.23,0.58 1.75,0.14 l 3.77,-3.21 c 0.52,-0.45 0.58,-1.23 0.14,-1.75 L 256.49,235.2 c -0.45,-0.52 -1.23,-0.58 -1.75,-0.14 l -3.77,3.22 c -0.52,0.44 -0.59,1.23 -0.14,1.75 z" /></g></g><g
       id="g124"><g
         clip-path="url(#clipPath130)"
         id="g126"><text
           id="text134"
           style="font-variant:normal;font-weight:normal;font-size:48.02399826px;font-family:TimesNewRomanPSMT;-inkscape-font-specification:TimesNewRomanPSMT;writing-mode:lr-tb;fill:#3b3838;fill-opacity:1;fill-rule:nonzero;stroke:none"
           transform="matrix(1,0,0,-1,361.46,120.55)"><tspan
             id="tspan132"
             y="0"
             x="0">P</tspan></text>
</g></g><g
       id="g136"><g
         clip-path="url(#clipPath142)"
         id="g138"><text
           id="text146"
           style="font-variant:normal;font-weight:normal;font-size:48.02399826px;font-family:TimesNewRomanPSMT;-inkscape-font-specification:TimesNewRomanPSMT;writing-mode:lr-tb;fill:#3b3838;fill-opacity:1;fill-rule:nonzero;stroke:none"
           transform="matrix(1,0,0,-1,272.21,120.55)"><tspan
             id="tspan144"
             y="0"
             x="0">R</tspan></text>
</g></g><g
       id="g148"><g
         clip-path="url(#clipPath154)"
         id="g150"><text
           id="text158"
           style="font-variant:normal;font-weight:normal;font-size:48.02399826px;font-family:TimesNewRomanPSMT;-inkscape-font-specification:TimesNewRomanPSMT;writing-mode:lr-tb;fill:#3b3838;fill-opacity:1;fill-rule:nonzero;stroke:none"
           transform="matrix(1,0,0,-1,401.95,120.55)"><tspan
             id="tspan156"
             y="0"
             x="0">H</tspan></text>
</g></g><g
       id="g160"><g
         clip-path="url(#clipPath166)"
         id="g162"><text
           id="text170"
           style="font-variant:normal;font-weight:normal;font-size:48px;font-family:TimesNewRomanPSMT;-inkscape-font-specification:TimesNewRomanPSMT;writing-mode:lr-tb;fill:#3b3838;fill-opacity:1;fill-rule:nonzero;stroke:none"
           transform="matrix(1,0,0,-1,222.7,120.1)"><tspan
             id="tspan168"
             y="0"
             x="0">G</tspan></text>
</g></g><path
       id="path172"
       style="fill:#f19c99;fill-opacity:1;fill-rule:evenodd;stroke:none"
       d="m 332.82,154.68 c 8.36,0 15.23,-6.72 16.06,-15.33 l 0.08,-1.75 v 0 -22.4 l -5.77,6.11 -5.19,-5.49 -5.18,5.49 -5.18,-5.49 -5.19,5.49 -5.77,-6.11 v 22.4 0 l 0.08,1.75 c 0.83,8.61 7.7,15.33 16.06,15.33 z" /><path
       id="path174"
       style="fill:none;stroke:#000000;stroke-width:0.75;stroke-linecap:butt;stroke-linejoin:miter;stroke-miterlimit:8;stroke-dasharray:none;stroke-opacity:1"
       d="m 332.82,154.68 c 8.36,0 15.23,-6.72 16.06,-15.33 l 0.08,-1.75 v 0 -22.4 l -5.77,6.11 -5.19,-5.49 -5.18,5.49 -5.18,-5.49 -5.19,5.49 -5.77,-6.11 v 22.4 0 l 0.08,1.75 c 0.83,8.61 7.7,15.33 16.06,15.33 z" /><path
       id="path176"
       style="fill:#ffffff;fill-opacity:1;fill-rule:evenodd;stroke:none"
       d="m 333.48,138.72 c 0,2.85 2.18,5.16 4.86,5.16 2.68,0 4.86,-2.31 4.86,-5.16 0,-2.85 -2.18,-5.16 -4.86,-5.16 -2.68,0 -4.86,2.31 -4.86,5.16 z" /><path
       id="path178"
       style="fill:none;stroke:#000000;stroke-width:1;stroke-linecap:butt;stroke-linejoin:miter;stroke-miterlimit:8;stroke-dasharray:none;stroke-opacity:1"
       d="m 333.48,138.72 c 0,2.85 2.18,5.16 4.86,5.16 2.68,0 4.86,-2.31 4.86,-5.16 0,-2.85 -2.18,-5.16 -4.86,-5.16 -2.68,0 -4.86,2.31 -4.86,5.16 z" /><path
       id="path180"
       style="fill:#000000;fill-opacity:1;fill-rule:evenodd;stroke:none"
       d="m 333.84,138.72 c 0,1.46 1.13,2.64 2.52,2.64 1.39,0 2.52,-1.18 2.52,-2.64 0,-1.46 -1.13,-2.64 -2.52,-2.64 -1.39,0 -2.52,1.18 -2.52,2.64 z" /><path
       id="path182"
       style="fill:none;stroke:#000000;stroke-width:1;stroke-linecap:butt;stroke-linejoin:miter;stroke-miterlimit:8;stroke-dasharray:none;stroke-opacity:1"
       d="m 333.84,138.72 c 0,1.46 1.13,2.64 2.52,2.64 1.39,0 2.52,-1.18 2.52,-2.64 0,-1.46 -1.13,-2.64 -2.52,-2.64 -1.39,0 -2.52,1.18 -2.52,2.64 z" /><path
       id="path184"
       style="fill:#ffffff;fill-opacity:1;fill-rule:evenodd;stroke:none"
       d="m 322.44,138.72 c 0,2.85 2.18,5.16 4.86,5.16 2.68,0 4.86,-2.31 4.86,-5.16 0,-2.85 -2.18,-5.16 -4.86,-5.16 -2.68,0 -4.86,2.31 -4.86,5.16 z" /><path
       id="path186"
       style="fill:none;stroke:#000000;stroke-width:1;stroke-linecap:butt;stroke-linejoin:miter;stroke-miterlimit:8;stroke-dasharray:none;stroke-opacity:1"
       d="m 322.44,138.72 c 0,2.85 2.18,5.16 4.86,5.16 2.68,0 4.86,-2.31 4.86,-5.16 0,-2.85 -2.18,-5.16 -4.86,-5.16 -2.68,0 -4.86,2.31 -4.86,5.16 z" /><path
       id="path188"
       style="fill:#000000;fill-opacity:1;fill-rule:evenodd;stroke:none"
       d="m 322.8,138.72 c 0,1.46 1.1,2.64 2.46,2.64 1.36,0 2.46,-1.18 2.46,-2.64 0,-1.46 -1.1,-2.64 -2.46,-2.64 -1.36,0 -2.46,1.18 -2.46,2.64 z" /><path
       id="path190"
       style="fill:none;stroke:#000000;stroke-width:1;stroke-linecap:butt;stroke-linejoin:miter;stroke-miterlimit:8;stroke-dasharray:none;stroke-opacity:1"
       d="m 322.8,138.72 c 0,1.46 1.1,2.64 2.46,2.64 1.36,0 2.46,-1.18 2.46,-2.64 0,-1.46 -1.1,-2.64 -2.46,-2.64 -1.36,0 -2.46,1.18 -2.46,2.64 z" /><g
       id="g192"><g
         clip-path="url(#clipPath198)"
         id="g194"><path
           id="path200"
           style="fill:#f19c99;fill-opacity:1;fill-rule:evenodd;stroke:none"
           d="m 457.82,262.29 c 7.96,3.3 16.69,0.47 19.5,-6.3 2.8,-6.78 -1.37,-14.95 -9.33,-18.25 -7.95,-3.29 -16.68,-0.47 -19.49,6.31 -2.81,6.78 1.37,14.94 9.32,18.24 z" /></g></g><g
       id="g202"><g
         clip-path="url(#clipPath208)"
         id="g204"><path
           id="path210"
           style="fill:none;stroke:#000000;stroke-width:2.25;stroke-linecap:butt;stroke-linejoin:round;stroke-miterlimit:8;stroke-dasharray:none;stroke-opacity:1"
           d="m 455.44,269.35 c 8.63,3.58 18.54,-0.56 22.13,-9.23 3.6,-8.68 -0.48,-18.61 -9.11,-22.18 -8.63,-3.58 -18.54,0.56 -22.13,9.23 -3.6,8.68 0.48,18.61 9.11,22.18 z" /></g></g><g
       id="g212"><g
         clip-path="url(#clipPath218)"
         id="g214"><path
           id="path220"
           style="fill:#f19c99;fill-opacity:1;fill-rule:evenodd;stroke:none"
           d="m 527.9,264.1 c -5.26,6.82 -4.81,15.98 1,20.46 5.81,4.48 14.79,2.58 20.04,-4.25 5.26,-6.82 4.81,-15.98 -1,-20.46 -5.81,-4.48 -14.78,-2.58 -20.04,4.25 z" /></g></g><g
       id="g222"><g
         clip-path="url(#clipPath228)"
         id="g224"><path
           id="path230"
           style="fill:none;stroke:#000000;stroke-width:2.25;stroke-linecap:butt;stroke-linejoin:round;stroke-miterlimit:8;stroke-dasharray:none;stroke-opacity:1"
           d="m 521.7,259.95 c -5.7,7.4 -4.29,18.05 3.15,23.78 7.44,5.73 18.09,4.38 23.79,-3.02 5.7,-7.4 4.29,-18.04 -3.15,-23.77 -7.44,-5.73 -18.09,-4.38 -23.79,3.01 z" /></g></g><path
       id="path232"
       style="fill:#000000;fill-opacity:1;fill-rule:evenodd;stroke:none"
       d="m 457.86,137.76 c 0,0.76 0.64,1.38 1.44,1.38 0.8,0 1.44,-0.62 1.44,-1.38 0,-0.76 -0.64,-1.38 -1.44,-1.38 -0.8,0 -1.44,0.62 -1.44,1.38 z" /><path
       id="path234"
       style="fill:none;stroke:#44546a;stroke-width:1.5;stroke-linecap:butt;stroke-linejoin:round;stroke-miterlimit:8;stroke-dasharray:none;stroke-opacity:1"
       d="m 457.86,137.76 c 0,0.76 0.64,1.38 1.44,1.38 0.8,0 1.44,-0.62 1.44,-1.38 0,-0.76 -0.64,-1.38 -1.44,-1.38 -0.8,0 -1.44,0.62 -1.44,1.38 z" /><g
       id="g236"><g
         clip-path="url(#clipPath242)"
         id="g238"><text
           id="text246"
           style="font-variant:normal;font-weight:normal;font-size:48px;font-family:TimesNewRomanPSMT;-inkscape-font-specification:TimesNewRomanPSMT;writing-mode:lr-tb;fill:#3b3838;fill-opacity:1;fill-rule:nonzero;stroke:none"
           transform="matrix(1,0,0,-1,624.72,121.63)"><tspan
             id="tspan244"
             y="0"
             x="0">L</tspan></text>
</g></g><g
       id="g248"><g
         clip-path="url(#clipPath254)"
         id="g250"><text
           id="text258"
           style="font-variant:normal;font-weight:normal;font-size:48px;font-family:TimesNewRomanPSMT;-inkscape-font-specification:TimesNewRomanPSMT;writing-mode:lr-tb;fill:#3b3838;fill-opacity:1;fill-rule:nonzero;stroke:none"
           transform="matrix(1,0,0,-1,577.44,121.63)"><tspan
             id="tspan256"
             y="0"
             x="0">L</tspan></text>
</g></g><g
       id="g260"><g
         clip-path="url(#clipPath266)"
         id="g262"><text
           id="text270"
           style="font-variant:normal;font-weight:normal;font-size:48px;font-family:TimesNewRomanPSMT;-inkscape-font-specification:TimesNewRomanPSMT;writing-mode:lr-tb;fill:#3b3838;fill-opacity:1;fill-rule:nonzero;stroke:none"
           transform="matrix(1,0,0,-1,665.18,121.63)"><tspan
             id="tspan268"
             y="0"
             x="0">E</tspan></text>
</g></g><g
       id="g272"><g
         clip-path="url(#clipPath278)"
         id="g274"><text
           id="text282"
           style="font-variant:normal;font-weight:normal;font-size:48px;font-family:TimesNewRomanPSMT;-inkscape-font-specification:TimesNewRomanPSMT;writing-mode:lr-tb;fill:#3b3838;fill-opacity:1;fill-rule:nonzero;stroke:none"
           transform="matrix(1,0,0,-1,483.98,119.59)"><tspan
             id="tspan280"
             y="0"
             x="0">G</tspan></text>
</g></g><g
       id="g284"><g
         clip-path="url(#clipPath290)"
         id="g286"><text
           id="text294"
           style="font-variant:normal;font-weight:normal;font-size:48px;font-family:TimesNewRomanPSMT;-inkscape-font-specification:TimesNewRomanPSMT;writing-mode:lr-tb;fill:#3b3838;fill-opacity:1;fill-rule:nonzero;stroke:none"
           transform="matrix(1,0,0,-1,714,121.63)"><tspan
             id="tspan292"
             y="0"
             x="0">R</tspan></text>
</g></g><g
       id="g296"><g
         clip-path="url(#clipPath302)"
         id="g298"><text
           id="text306"
           style="font-variant:normal;font-weight:normal;font-size:48px;font-family:TimesNewRomanPSMT;-inkscape-font-specification:TimesNewRomanPSMT;writing-mode:lr-tb;fill:#3b3838;fill-opacity:1;fill-rule:nonzero;stroke:none"
           transform="matrix(1,0,0,-1,764.4,121.63)"><tspan
             id="tspan304"
             y="0"
             x="0">Y</tspan></text>
</g></g><path
       id="path308"
       style="fill:#cc0066;fill-opacity:1;fill-rule:evenodd;stroke:none"
       d="m 547.98,154.68 c 8.36,0 15.23,-6.72 16.06,-15.33 l 0.08,-1.75 v 0 -22.4 l -5.77,6.11 -5.19,-5.49 -5.18,5.49 -5.18,-5.49 -5.19,5.49 -5.77,-6.11 v 22.4 0 l 0.08,1.75 c 0.83,8.61 7.7,15.33 16.06,15.33 z" /><path
       id="path310"
       style="fill:none;stroke:#000000;stroke-width:0.75;stroke-linecap:butt;stroke-linejoin:miter;stroke-miterlimit:8;stroke-dasharray:none;stroke-opacity:1"
       d="m 547.98,154.68 c 8.36,0 15.23,-6.72 16.06,-15.33 l 0.08,-1.75 v 0 -22.4 l -5.77,6.11 -5.19,-5.49 -5.18,5.49 -5.18,-5.49 -5.19,5.49 -5.77,-6.11 v 22.4 0 l 0.08,1.75 c 0.83,8.61 7.7,15.33 16.06,15.33 z" /><path
       id="path312"
       style="fill:#ffffff;fill-opacity:1;fill-rule:evenodd;stroke:none"
       d="m 548.64,138.72 c 0,2.85 2.18,5.16 4.86,5.16 2.68,0 4.86,-2.31 4.86,-5.16 0,-2.85 -2.18,-5.16 -4.86,-5.16 -2.68,0 -4.86,2.31 -4.86,5.16 z" /><path
       id="path314"
       style="fill:none;stroke:#000000;stroke-width:1;stroke-linecap:butt;stroke-linejoin:miter;stroke-miterlimit:8;stroke-dasharray:none;stroke-opacity:1"
       d="m 548.64,138.72 c 0,2.85 2.18,5.16 4.86,5.16 2.68,0 4.86,-2.31 4.86,-5.16 0,-2.85 -2.18,-5.16 -4.86,-5.16 -2.68,0 -4.86,2.31 -4.86,5.16 z" /><path
       id="path316"
       style="fill:#000000;fill-opacity:1;fill-rule:evenodd;stroke:none"
       d="m 549,138.72 c 0,1.46 1.13,2.64 2.52,2.64 1.39,0 2.52,-1.18 2.52,-2.64 0,-1.46 -1.13,-2.64 -2.52,-2.64 -1.39,0 -2.52,1.18 -2.52,2.64 z" /><path
       id="path318"
       style="fill:none;stroke:#000000;stroke-width:1;stroke-linecap:butt;stroke-linejoin:miter;stroke-miterlimit:8;stroke-dasharray:none;stroke-opacity:1"
       d="m 549,138.72 c 0,1.46 1.13,2.64 2.52,2.64 1.39,0 2.52,-1.18 2.52,-2.64 0,-1.46 -1.13,-2.64 -2.52,-2.64 -1.39,0 -2.52,1.18 -2.52,2.64 z" /><path
       id="path320"
       style="fill:#ffffff;fill-opacity:1;fill-rule:evenodd;stroke:none"
       d="m 537.6,138.72 c 0,2.85 2.18,5.16 4.86,5.16 2.68,0 4.86,-2.31 4.86,-5.16 0,-2.85 -2.18,-5.16 -4.86,-5.16 -2.68,0 -4.86,2.31 -4.86,5.16 z" /><path
       id="path322"
       style="fill:none;stroke:#000000;stroke-width:1;stroke-linecap:butt;stroke-linejoin:miter;stroke-miterlimit:8;stroke-dasharray:none;stroke-opacity:1"
       d="m 537.6,138.72 c 0,2.85 2.18,5.16 4.86,5.16 2.68,0 4.86,-2.31 4.86,-5.16 0,-2.85 -2.18,-5.16 -4.86,-5.16 -2.68,0 -4.86,2.31 -4.86,5.16 z" /><path
       id="path324"
       style="fill:#000000;fill-opacity:1;fill-rule:evenodd;stroke:none"
       d="m 537.96,138.72 c 0,1.46 1.1,2.64 2.46,2.64 1.36,0 2.46,-1.18 2.46,-2.64 0,-1.46 -1.1,-2.64 -2.46,-2.64 -1.36,0 -2.46,1.18 -2.46,2.64 z" /><path
       id="path326"
       style="fill:none;stroke:#000000;stroke-width:1;stroke-linecap:butt;stroke-linejoin:miter;stroke-miterlimit:8;stroke-dasharray:none;stroke-opacity:1"
       d="m 537.96,138.72 c 0,1.46 1.1,2.64 2.46,2.64 1.36,0 2.46,-1.18 2.46,-2.64 0,-1.46 -1.1,-2.64 -2.46,-2.64 -1.36,0 -2.46,1.18 -2.46,2.64 z" /><path
       id="path328"
       style="fill:none;stroke:#767171;stroke-width:2.25;stroke-linecap:butt;stroke-linejoin:miter;stroke-miterlimit:8;stroke-dasharray:none;stroke-opacity:1"
       d="M 518.41,272.46 477.66,247.11" /><path
       id="path330"
       style="fill:none;stroke:#767171;stroke-width:2.25;stroke-linecap:butt;stroke-linejoin:miter;stroke-miterlimit:8;stroke-dasharray:none;stroke-opacity:1"
       d="m 446.44,247.16 -40.42,22.66" /><g
       id="g332"><g
         clip-path="url(#clipPath338)"
         id="g334"><path
           id="path340"
           style="fill:#f19c99;fill-opacity:1;fill-rule:evenodd;stroke:none"
           d="m 603.99,222.47 c -5.26,6.82 -4.81,15.99 1.01,20.46 5.81,4.48 14.78,2.58 20.04,-4.24 5.25,-6.82 4.8,-15.98 -1.01,-20.46 -5.81,-4.48 -14.78,-2.58 -20.04,4.24 z" /></g></g><g
       id="g342"><g
         clip-path="url(#clipPath348)"
         id="g344"><path
           id="path350"
           style="fill:none;stroke:#000000;stroke-width:2.25;stroke-linecap:butt;stroke-linejoin:round;stroke-miterlimit:8;stroke-dasharray:none;stroke-opacity:1"
           d="m 597.8,218.33 c -5.71,7.4 -4.3,18.04 3.14,23.77 7.44,5.73 18.09,4.38 23.79,-3.01 5.7,-7.4 4.29,-18.05 -3.14,-23.78 -7.44,-5.73 -18.09,-4.38 -23.79,3.02 z" /></g></g></g></svg>